<?xml version="1.0" encoding="iso-8859-1"?>
<!-- Uploaded to: SVG Repo, www.svgrepo.com, Generator: SVG Repo Mixer Tools -->
<svg height="800px" width="800px" version="1.1" id="Layer_1" xmlns="http://www.w3.org/2000/svg" xmlns:xlink="http://www.w3.org/1999/xlink" 
	 viewBox="0 0 496.159 496.159" xml:space="preserve">
<g>
	<path style="fill:#64A80D;" d="M248.082,0.003C111.07,0.003,0,111.063,0,248.085c0,137.001,111.07,248.07,248.082,248.07
		c137.006,0,248.076-111.069,248.076-248.07C496.158,111.062,385.088,0.003,248.082,0.003z"/>
	<path style="fill:#64A80D;" d="M343.327,420.671c0.205-2.052,0.317-4.063,0.335-6.019L343.327,420.671z"/>
</g>
<path style="fill:#EDB721;" d="M333.651,377.844c-13.563-23.732-55.378-4.521-55.378-4.521
	c-24.864,14.694-29.384,2.261-29.384,2.261V247.876H131.35c0,0-20.342-1.13-20.342,13.562c0,0-5.649,16.952,13.563,28.253
	c0,0,16.953,24.863-4.522,40.686c0,0-32.773,35.035-77.98,3.391c0,0-24.862-13.563,1.131-55.378c0,0,15.821-29.384-9.041-30.514
	H0.003C0.002,247.946,0,248.015,0,248.085c0,137,111.07,248.071,248.082,248.071c0.27,0,0.538-0.01,0.808-0.011v-40.319
	c1.133-3.39,14.691-7.911,14.691-7.911c7.911,0,36.164,6.781,36.164,6.781c29.385,3.391,39.557-16.952,39.557-16.952
	c2.245-5.919,3.484-11.648,4.025-17.072l0.335-6.02C343.851,393.147,333.651,377.844,333.651,377.844z"/>
<path style="fill:#EA4949;" d="M248.308,0.006v45.65c0,0,3.389,27.124,25.426,30.513c0,0,30.534-9.121,35.052-9.121
	c0,0,28.254,0,30.516,28.255c0,0,1.131,38.426-10.172,47.466c0,0-16.951,19.214-49.726,4.522c0,0-25.995-20.343-30.515,3.39v97.194
	h107.364c7.912-3.391,7.912-18.083,7.912-18.083c0-6.781-18.083-25.993-18.083-25.993c-9.043-23.734,11.302-40.687,11.302-40.687
	c20.345-14.692,53.117-13.562,53.117-13.562c42.948,5.651,36.163,42.946,36.163,42.946c-1.127,15.822-27.119,41.815-27.119,41.815
	c-1.133,7.912,10.167,13.563,10.167,13.563h66.442C496.043,111.026,385.141,0.128,248.308,0.006z"/>
<g>
	<path style="fill:#64A80D;" d="M496.155,247.876h-66.442c0,0-11.3-5.65-10.167-13.563c0,0,25.992-25.993,27.119-41.815
		c0,0,6.785-37.295-36.163-42.946c0,0-32.772-1.13-53.117,13.562c0,0-20.345,16.952-11.302,40.687c0,0,18.083,19.212,18.083,25.993
		c0,0,0,14.692-7.912,18.083H248.89v127.708c0,0,4.52,12.433,29.384-2.261c0,0,41.815-19.212,55.378,4.521
		c0,0,10.2,15.303,10.011,36.809c-0.018,1.956-0.13,3.967-0.335,6.019c-0.541,5.423-1.78,11.153-4.025,17.072
		c0,0-10.172,20.343-39.557,16.953c0,0-28.253-6.781-36.164-6.781c0,0-13.559,4.521-14.691,7.912v40.319
		c12.935-0.041,25.635-1.074,38.032-3.024c18.488-2.908,36.297-7.856,53.191-14.61c91.439-36.553,156.045-125.943,156.045-230.426
		C496.158,248.015,496.156,247.946,496.155,247.876z"/>
	<path style="fill:#64A80D;" d="M429.713,249.376c-0.232,0-0.463-0.054-0.671-0.158c-0.501-0.25-12.252-6.236-10.98-15.117
		c0.046-0.321,0.194-0.619,0.424-0.848c0.256-0.256,25.608-25.772,26.684-40.861c0.004-0.053,0.011-0.108,0.021-0.161
		c0.025-0.145,2.511-14.667-6.079-26.421c-5.88-8.046-15.547-13.013-28.729-14.761c-0.181-0.005-0.705-0.017-1.521-0.017
		c-7.543,0-33.463,0.957-50.55,13.263c-0.918,0.79-19.063,16.815-10.929,38.697c2.656,2.84,18.284,19.845,18.284,26.801
		c0,0.64-0.101,15.725-8.821,19.462c-0.187,0.08-0.388,0.121-0.591,0.121H250.39v125.888c0.418,0.823,2.287,3.732,7.787,3.732
		c5.009,0,11.514-2.343,19.334-6.964c0.044-0.026,0.09-0.05,0.137-0.072c0.664-0.305,16.457-7.479,32.013-7.479
		c11.979,0,20.479,4.23,25.269,12.575c0.731,1.111,10.422,16.257,10.233,37.61c-0.018,1.99-0.133,4.061-0.343,6.154
		c-0.593,5.947-1.978,11.82-4.115,17.455c-0.018,0.047-0.038,0.094-0.061,0.139c-0.371,0.742-9.373,18.161-34.454,18.163
		c-2.14,0-4.366-0.132-6.616-0.391c-0.06-0.007-0.119-0.018-0.178-0.032c-0.278-0.066-27.607-6.605-35.575-6.738
		c-5.934,2.003-12.508,5.082-13.431,6.715v38.504c12.161-0.112,24.364-1.12,36.299-2.997c18.097-2.846,35.884-7.731,52.868-14.521
		c45.252-18.089,83.854-48.934,111.634-89.198c28.194-40.864,43.21-88.742,43.465-138.543H429.713z"/>
</g>
<path style="fill:#2D2D2D;" d="M496.155,247.876h-66.442c0,0-11.3-5.65-10.167-13.563c0,0,25.992-25.993,27.119-41.815
	c0,0,6.785-37.295-36.163-42.946c0,0-0.584-0.02-1.641-0.02c-6.877,0-33.844,0.848-51.477,13.582c0,0-20.345,16.952-11.302,40.687
	c0,0,18.083,19.212,18.083,25.993c0,0,0,14.692-7.912,18.083H248.89v127.708c0,0,1.786,4.912,9.287,4.912
	c4.433,0,10.86-1.715,20.097-7.173c0,0,15.98-7.342,31.387-7.342c9.516,0,18.813,2.8,23.991,11.862c0,0,10.2,15.303,10.011,36.809
	c-0.018,1.956-0.13,3.967-0.335,6.019c-0.541,5.423-1.78,11.153-4.025,17.072c0,0-8.67,17.334-33.112,17.334
	c-2.038,0-4.183-0.121-6.444-0.381c0,0-28.253-6.781-36.164-6.781c0,0-13.559,4.521-14.691,7.912v40.319
	c1.38-0.004,1.624,0.002,2.999-0.024l0.001-3.003v-36.431c1.386-1.365,6.727-3.907,12.16-5.764
	c6.746,0.221,27.417,4.872,34.995,6.69c0.117,0.028,0.236,0.049,0.356,0.063c2.306,0.266,4.59,0.401,6.788,0.401
	c25.998,0,35.407-18.216,35.795-18.992c0.046-0.091,0.086-0.184,0.122-0.278c2.185-5.758,3.6-11.76,4.206-17.837
	c0.214-2.138,0.331-4.255,0.35-6.291c0.189-21.545-9.504-36.95-10.454-38.407c-5.08-8.818-14.012-13.29-26.548-13.29
	c-15.88,0-31.963,7.305-32.639,7.616c-0.094,0.043-0.186,0.091-0.274,0.144c-7.479,4.419-13.9,6.755-18.57,6.755
	c-4.131,0-5.757-1.797-6.287-2.626V250.876h104.364c0.406,0,0.809-0.083,1.182-0.243c9.457-4.053,9.73-19.134,9.73-20.84
	c0-7.179-13.627-22.409-18.481-27.605c-3.168-8.739-2.432-17.487,2.191-26.012c3.391-6.251,7.782-10.194,8.364-10.703
	c17.159-12.317,44.338-12.942,49.621-12.942c0.701,0,1.181,0.009,1.4,0.015c12.707,1.7,21.999,6.451,27.618,14.123
	c8.213,11.211,5.857,25.159,5.833,25.292c-0.019,0.107-0.032,0.215-0.04,0.324c-0.858,12.052-19.239,32.894-26.249,39.908
	c-0.458,0.458-0.756,1.054-0.848,1.696c-1.423,9.939,11.255,16.401,11.795,16.671c0.417,0.208,0.876,0.317,1.342,0.317h63.43
	c0,0.025,2.986-0.021,2.986-0.021c0.012-1.021,0.029-1.745,0.029-2.77C496.158,248.015,496.156,247.946,496.155,247.876z"/>
<path style="fill:#48A1AF;" d="M339.302,95.304c-2.262-28.255-30.516-28.255-30.516-28.255c-4.518,0-35.052,9.121-35.052,9.121
	c-22.037-3.39-25.426-30.513-25.426-30.513V0.006c-0.076,0-0.15-0.003-0.227-0.003c-0.107,0-0.214,0.004-0.321,0.004
	C112.478,0.179,2.581,108.624,0.059,243.355c-0.028,1.505-0.056,3.01-0.057,4.521h34.157c24.862,1.129,9.041,30.514,9.041,30.514
	c-25.993,41.816-1.131,55.378-1.131,55.378c45.207,31.645,77.98-3.391,77.98-3.391c21.476-15.823,4.522-40.686,4.522-40.686
	c-19.213-11.302-13.563-28.253-13.563-28.253c0-14.692,20.342-13.562,20.342-13.562h116.41v-4.521h1.129v-92.673
	c4.52-23.733,30.515-3.39,30.515-3.39c32.774,14.692,49.726-4.522,49.726-4.522C340.433,133.729,339.302,95.304,339.302,95.304z"/>
<path style="fill:#2D2D2D;" d="M339.302,95.304c-2.262-28.255-30.516-28.255-30.516-28.255c-4.518,0-35.052,9.121-35.052,9.121
	c-22.037-3.39-25.426-30.513-25.426-30.513V0.006c-0.076,0-0.15-0.003-0.227-0.003c-0.107,0-0.214,0.004-0.321,0.004
	c-1.121,0.001-2.513,0.004-2.513,0.004l0.061,3.011v42.634c0,0.125,0.008,0.249,0.023,0.372c0.149,1.2,3.945,29.415,27.946,33.106
	c0.151,0.023,0.304,0.035,0.456,0.035c0.29,0,0.579-0.042,0.858-0.125c12.505-3.735,31.38-8.996,34.187-8.996
	c1.04,0.005,25.473,0.407,27.525,25.419c0.293,10.336-0.765,38.334-9.049,44.96c-0.128,0.103-0.257,0.226-0.367,0.348
	c-0.332,0.37-8.311,9.05-23.945,9.05c-6.909,0-14.309-1.726-21.998-5.131c-1.891-1.422-11.771-8.517-20.689-8.517
	c-4.354,0-12.003,1.812-14.313,13.944c-0.035,0.185-0.053,0.373-0.053,0.561l0.001,94.194H131.422
	c-0.162-0.007-0.53-0.02-1.061-0.02c-10.674,0-22.072,4.25-22.348,16.139c0,8.642,3.453,18.142,14.203,30.642
	c1.923,2.236,4.025,6.831,5.2,13.023c1.829,9.644-1.249,17.483-9.146,23.303c-0.148,0.109-0.286,0.231-0.411,0.366
	c-0.146,0.157-14.929,15.676-37.82,15.676c-12.021,0-24.217-4.271-36.249-12.693c-0.08-0.056-0.181-0.118-0.266-0.166
	c-0.25-0.141-6.136-3.546-8.351-12.203c-2.604-10.175,1.053-23.65,10.574-38.969c0.033-0.053,0.064-0.106,0.094-0.161
	c0.375-0.696,9.113-17.167,3.314-27.397c-2.649-4.672-7.649-7.208-14.861-7.536c-0.045-0.002-0.09-0.003-0.136-0.003l-34.109-0.031
	c-0.022,1.249-0.046,1.777-0.047,3.031h34.157c24.862,1.129,9.041,30.514,9.041,30.514c-25.993,41.816-1.131,55.378-1.131,55.378
	c14.063,9.845,26.926,13.236,37.97,13.236c24.458,0,40.011-16.626,40.011-16.626c21.476-15.823,7.02-37.588,4.75-40.783
	c-3.014-4.243-13.791-14.708-13.791-28.157c0-12.677,15.278-13.582,19.353-13.582c0.628,0,0.989,0.02,0.989,0.02H248.89v-97.194
	c1.665-8.744,6.245-11.505,11.366-11.505c8.779,0,19.148,8.115,19.148,8.115c9.063,4.063,16.92,5.533,23.539,5.533
	c17.316,0,26.187-10.055,26.187-10.055C340.433,133.729,339.302,95.304,339.302,95.304z"/>
</svg>