<svg width="438" height="512" viewBox="0 0 438 512" fill="none" xmlns="http://www.w3.org/2000/svg">
<path d="M117.326 0L170.978 53.651L152.448 72.181H218C276.762 72.181 331.993 95.049 373.517 136.574C415.041 178.099 437.909 233.329 437.909 292.09C437.909 350.852 415.041 406.083 373.516 447.607C331.991 489.131 276.761 512 218 512H210.036V421.891H218C289.572 421.891 347.801 363.663 347.801 292.09C347.801 220.517 289.572 162.29 218 162.29H152.449L170.979 180.82L117.327 234.472L0.0909424 117.236L117.326 0ZM148.453 180.819L113.995 146.361H218C298.355 146.361 363.729 211.735 363.729 292.09C363.729 369.773 302.629 433.453 225.964 437.604V495.921C277.484 493.96 325.618 472.98 362.254 436.345C400.77 397.829 421.982 346.598 421.982 292.091C421.982 237.584 400.77 186.353 362.254 147.837C323.737 109.321 272.508 88.11 218 88.11H113.995L148.453 53.652L117.326 22.525L22.6159 117.235L117.326 211.945L148.453 180.819Z" fill="black"/>
</svg>
