<svg width="438" height="512" viewBox="0 0 438 512" fill="none" xmlns="http://www.w3.org/2000/svg">
<path d="M320.674 0L267.022 53.651L285.552 72.181H220C161.238 72.181 106.007 95.049 64.4829 136.574C22.9589 178.099 0.0909424 233.329 0.0909424 292.09C0.0909424 350.852 22.9589 406.083 64.4839 447.607C106.009 489.131 161.239 512 220 512H227.964V421.891H220C148.428 421.891 90.1989 363.663 90.1989 292.09C90.1989 220.517 148.428 162.29 220 162.29H285.551L267.021 180.82L320.673 234.472L437.909 117.236L320.674 0ZM289.547 180.819L324.005 146.361H220C139.645 146.361 74.271 211.735 74.271 292.09C74.271 369.773 135.371 433.453 212.036 437.604V495.921C160.516 493.96 112.382 472.98 75.7459 436.345C37.2299 397.829 16.0179 346.598 16.0179 292.091C16.0179 237.584 37.2299 186.353 75.7459 147.837C114.263 109.321 165.492 88.11 220 88.11H324.005L289.547 53.652L320.674 22.525L415.384 117.235L320.674 211.945L289.547 180.819Z" fill="black"/>
</svg>
