<svg width="31" height="33" viewBox="0 0 31 33" fill="none" xmlns="http://www.w3.org/2000/svg">
<ellipse cx="15.002" cy="30.3123" rx="11.6201" ry="1.78771" fill="url(#paint0_radial_102_171)"/>
<path d="M15.0151 30.1335C6.72886 30.1335 0.0115623 23.4103 0.0115623 15.1168C0.0115623 6.82324 6.72886 0.100006 15.0151 0.100006C23.3013 0.100006 30.0186 6.82324 30.0186 15.1168C30.0186 23.4103 23.3013 30.1335 15.0151 30.1335Z" fill="url(#paint1_radial_102_171)"/>
<path d="M15.0143 16.3439C14.3367 16.3439 13.7874 15.7941 13.7874 15.116C13.7874 14.4378 14.3367 13.888 15.0143 13.888C15.6919 13.888 16.2412 14.4378 16.2412 15.116C16.2412 15.7941 15.6919 16.3439 15.0143 16.3439Z" fill="url(#paint2_linear_102_171)"/>
<path d="M11.3303 17.2428C11.6663 17.8244 12.4024 18.0302 12.9806 17.6987C13.5594 17.3679 13.7583 16.6211 13.4197 16.0343C13.0811 15.4479 12.3357 15.2477 11.7598 15.5845C11.3739 15.8097 11.1617 16.2176 11.1646 16.6366C11.1662 16.8424 11.2197 17.0511 11.3303 17.2428Z" fill="url(#paint3_linear_102_171)"/>
<path d="M11.761 14.6456C12.3369 14.9824 13.0826 14.7828 13.4216 14.1965C13.7607 13.6104 13.5623 12.8633 12.9839 12.5315C12.406 12.2 11.6695 12.4054 11.3331 12.9861C11.3331 12.9861 11.3331 12.9861 11.3331 12.9864C11.2221 13.1783 11.1688 13.3871 11.1671 13.5935C11.1646 14.0125 11.3759 14.4202 11.761 14.6456Z" fill="url(#paint4_linear_102_171)"/>
<path d="M15.0098 19.3713C15.6803 19.3718 16.2274 18.8373 16.2309 18.1701C16.2343 17.5031 15.6887 16.9564 15.0118 16.9561C14.3349 16.9553 13.7878 17.5014 13.7901 18.1686C13.7929 18.8355 14.3386 19.3713 15.0098 19.3713Z" fill="url(#paint5_linear_102_171)"/>
<path d="M15.0144 13.276C15.0152 13.276 15.016 13.276 15.0171 13.276C15.6942 13.2771 16.2416 12.7321 16.2397 12.0649C16.2379 11.4288 15.741 10.9116 15.1136 10.8642C15.0809 10.8619 15.0478 10.8603 15.0144 10.8603C14.3433 10.8603 13.7967 11.3961 13.7938 12.0626C13.7908 12.7301 14.3373 13.276 15.0144 13.276Z" fill="url(#paint6_linear_102_171)"/>
<path d="M17.0417 17.7016C17.62 18.0341 18.3568 17.8297 18.6935 17.2488C19.0304 16.6677 18.8416 15.9266 18.2668 15.5891C17.6916 15.2518 16.9455 15.4508 16.6057 16.0369C16.6059 16.0369 16.6059 16.0369 16.6062 16.0369C16.4937 16.2307 16.4401 16.4423 16.4395 16.6505C16.4383 17.072 16.6553 17.4796 17.0417 17.7016Z" fill="url(#paint7_linear_102_171)"/>
<path d="M16.6081 14.1989C16.9464 14.7859 17.6922 14.9871 18.2679 14.6515C18.8437 14.3155 19.0343 13.5741 18.6991 12.992C18.6991 12.992 18.6989 12.992 18.6986 12.9925C18.3637 12.4109 17.6277 12.2045 17.0484 12.5353C16.6601 12.7571 16.4424 13.1656 16.4435 13.5883C16.444 13.7956 16.4971 14.0058 16.6081 14.1989Z" fill="url(#paint8_linear_102_171)"/>
<path d="M7.96133 16.2414C8.06672 16.8921 8.65567 17.3517 9.28122 17.2564C9.907 17.1621 10.3387 16.5478 10.2325 15.8871C10.1259 15.2263 9.52349 14.7788 8.89943 14.8854C8.27595 14.992 7.85601 15.5901 7.96124 16.2408C7.96124 16.2408 7.96116 16.2409 7.96133 16.2414Z" fill="url(#paint9_linear_102_171)"/>
<path d="M9.4794 19.6236C9.89464 20.1329 10.6232 20.2318 11.1168 19.8365C11.6112 19.4416 11.6778 18.6934 11.2554 18.1743C11.2557 18.1743 11.2558 18.1743 11.2561 18.1743C10.8337 17.6556 10.0882 17.57 9.60116 17.9743C9.27439 18.2464 9.1452 18.6677 9.22045 19.0686C9.25737 19.2647 9.34319 19.4561 9.4794 19.6236Z" fill="url(#paint10_linear_102_171)"/>
<path d="M8.97769 14.1038C9.5668 14.3351 10.2474 14.0197 10.4855 13.3944C10.724 12.7688 10.426 12.0798 9.83245 11.8596C9.23928 11.6393 8.5774 11.9623 8.34083 12.5727C8.26261 12.7748 8.24088 12.984 8.26839 13.1831C8.32398 13.5864 8.58335 13.9488 8.97769 14.1038Z" fill="url(#paint11_linear_102_171)"/>
<path d="M12.4674 21.7942C13.0811 22.0333 13.762 21.7457 13.9941 21.1559C14.2259 20.567 13.9116 19.8851 13.2871 19.6452C12.6628 19.4061 11.9734 19.7037 11.7523 20.2974C11.6792 20.494 11.6662 20.6983 11.7036 20.892C11.7785 21.2828 12.0573 21.6337 12.4674 21.7942Z" fill="url(#paint12_linear_102_171)"/>
<path d="M10.2919 11.2223C10.6879 11.7163 11.4352 11.7821 11.9526 11.3586C11.9528 11.3586 11.9528 11.3586 11.9531 11.3586C12.471 10.9353 12.5554 10.1895 12.1499 9.70239C11.7446 9.21631 11.0115 9.16715 10.5025 9.58277C10.5025 9.58277 10.5023 9.58277 10.5029 9.58326C10.1619 9.86191 10.0066 10.2811 10.0594 10.6764C10.0853 10.8711 10.1617 11.0596 10.2919 11.2223Z" fill="url(#paint13_linear_102_171)"/>
<path d="M16.1371 22.1807C16.7859 22.0752 17.2381 21.4828 17.1438 20.8564C17.0503 20.23 16.4371 19.7972 15.7768 19.9027C15.1163 20.0084 14.6684 20.6105 14.774 21.2351C14.7742 21.2364 14.7742 21.2372 14.7744 21.2385C14.8819 21.8612 15.49 22.2865 16.1371 22.1807Z" fill="url(#paint14_linear_102_171)"/>
<path d="M14.2366 10.3318V10.3315C14.2374 10.3315 14.2382 10.331 14.239 10.331C14.2475 10.3299 14.2562 10.3283 14.2647 10.327C14.9253 10.2236 15.3748 9.62243 15.2706 8.99757C15.1671 8.37254 14.5639 7.94907 13.9147 8.05226C13.9147 8.05226 13.9145 8.05193 13.9139 8.05193C13.9111 8.0525 13.9079 8.053 13.9052 8.05333C13.8946 8.05506 13.884 8.05697 13.8734 8.05854C13.2253 8.1656 12.771 8.75585 12.8666 9.38179C12.9623 10.0081 13.5767 10.4392 14.2366 10.3318Z" fill="url(#paint15_linear_102_171)"/>
<path d="M17.8621 20.5381C18.2659 21.0259 18.9997 21.0775 19.5094 20.6627C20.0188 20.2484 20.1193 19.5186 19.7245 19.0234C19.3304 18.5279 18.583 18.4606 18.0642 18.8825C18.0642 18.8822 18.0642 18.882 18.0642 18.882C17.7148 19.1661 17.5606 19.5968 17.6207 19.9962C17.6497 20.1911 17.7297 20.378 17.8621 20.5381Z" fill="url(#paint16_linear_102_171)"/>
<path d="M16.754 10.5919C17.3779 10.8331 18.068 10.5377 18.29 9.94461C18.5128 9.35172 18.1923 8.68728 17.58 8.44688C17.58 8.44688 17.5803 8.44688 17.5804 8.44746C16.9685 8.20731 16.2854 8.49092 16.0515 9.07935C15.9738 9.27547 15.9562 9.48158 15.9908 9.67877C16.0599 10.0734 16.3383 10.431 16.754 10.5919Z" fill="url(#paint17_linear_102_171)"/>
<path d="M20.1862 18.3878C20.779 18.6101 21.4425 18.2885 21.6817 17.6757C21.6817 17.6757 21.6817 17.6757 21.6822 17.6752C21.922 17.063 21.6362 16.3785 21.0475 16.1456C20.4593 15.9126 19.7772 16.226 19.5373 16.8508C19.4575 17.0586 19.4365 17.274 19.4666 17.4766C19.5265 17.8839 19.7904 18.2398 20.1862 18.3878Z" fill="url(#paint18_linear_102_171)"/>
<path d="M18.7817 12.0683H18.7819C19.2028 12.5885 19.9481 12.6764 20.4355 12.2729C20.9235 11.8696 20.9758 11.1353 20.5624 10.6247C20.1491 10.1135 19.4206 10.0125 18.9251 10.4066C18.5916 10.6718 18.4505 11.0968 18.5235 11.5056C18.5586 11.7039 18.6443 11.8987 18.7817 12.0683Z" fill="url(#paint19_linear_102_171)"/>
<path d="M21.1278 15.3644C21.7522 15.2596 22.1771 14.655 22.0726 14.0053C21.9683 13.3553 21.3786 12.8994 20.7526 12.9921C20.1267 13.0854 19.6933 13.6978 19.7976 14.3588C19.798 14.3606 19.7981 14.3619 19.7983 14.3636C19.9054 15.0219 20.5054 15.4689 21.1278 15.3644Z" fill="url(#paint20_linear_102_171)"/>
<path d="M6.20709 14.7338C6.75903 14.8501 7.32072 14.4264 7.43223 13.7849C7.43223 13.7851 7.4319 13.7849 7.4319 13.7849C7.54342 13.1435 7.15825 12.5428 6.60349 12.4464C6.048 12.3508 5.53356 12.7785 5.42494 13.3999C5.41345 13.4651 5.4071 13.5298 5.40528 13.5937C5.39066 14.1397 5.71321 14.6302 6.20709 14.7338Z" fill="url(#paint21_linear_102_171)"/>
<path d="M5.43406 16.8006C5.54615 17.4309 6.06448 17.8768 6.61973 17.7912C7.17522 17.7061 7.55726 17.1109 7.44104 16.4651C7.44104 16.4651 7.44128 16.4651 7.44153 16.4651C7.32589 15.8191 6.76131 15.3812 6.20978 15.4818C5.71863 15.5716 5.39921 16.048 5.41325 16.595C5.41499 16.6623 5.42167 16.7314 5.43406 16.8006Z" fill="url(#paint22_linear_102_171)"/>
<path d="M8.34402 11.2839V11.2837C8.67195 10.7209 8.50889 10.0241 8.01163 9.74366C7.51462 9.46246 6.88462 9.68815 6.57255 10.232C6.57255 10.232 6.57255 10.2322 6.57279 10.2317C6.4702 10.4106 6.4142 10.6022 6.40197 10.7903C6.37653 11.1755 6.53306 11.5474 6.85645 11.7489C7.33752 12.0486 8.01642 11.8469 8.34402 11.2839Z" fill="url(#paint23_linear_102_171)"/>
<path d="M8.37237 18.9906C8.37262 18.9906 8.37262 18.9906 8.37295 18.9906C8.0404 18.4229 7.35893 18.2066 6.87869 18.5012C6.55844 18.6981 6.40398 19.0689 6.42967 19.4586C6.44247 19.6524 6.50029 19.8514 6.60577 20.0362C6.60577 20.0362 6.60577 20.0366 6.60602 20.0366C6.92313 20.5927 7.55602 20.8176 8.0513 20.5346C8.54658 20.2523 8.70492 19.5592 8.37237 18.9906Z" fill="url(#paint24_linear_102_171)"/>
<path d="M8.49017 9.17203C8.85196 9.61903 9.56547 9.65331 10.0648 9.232C10.5637 8.81085 10.6561 8.09916 10.2782 7.67306C9.90108 7.24786 9.19773 7.24861 8.72219 7.65447C8.45812 7.87975 8.30687 8.18343 8.28358 8.48694C8.265 8.72973 8.32934 8.97385 8.49017 9.17203Z" fill="url(#paint25_linear_102_171)"/>
<path d="M8.77417 22.6232C9.26118 23.031 9.95314 23.0286 10.3282 22.5994C10.7034 22.1705 10.6103 21.4548 10.1079 21.0371C9.60563 20.6199 8.8927 20.6579 8.53379 21.108C8.37619 21.3058 8.31143 21.5464 8.32779 21.7852C8.34877 22.0898 8.50158 22.3955 8.77417 22.6232Z" fill="url(#paint26_linear_102_171)"/>
<path d="M11.6824 5.96539C11.2138 6.13565 10.9046 6.52838 10.8794 6.94714C10.8723 7.0637 10.8877 7.18266 10.9283 7.29889C11.1149 7.83181 11.7695 8.10757 12.3841 7.88188C12.9992 7.65643 13.3287 7.02364 13.1266 6.49889C12.9249 5.97423 12.282 5.74805 11.6824 5.96539Z" fill="url(#paint27_linear_102_171)"/>
<path d="M11.7296 24.3096C12.3279 24.5262 12.9705 24.2932 13.1728 23.7629C13.3751 23.2325 13.0465 22.5988 12.4313 22.376C12.4312 22.376 12.431 22.376 12.431 22.376C11.8164 22.1537 11.1622 22.4355 10.9771 22.9721C10.9376 23.0865 10.9222 23.2035 10.9281 23.3185C10.9505 23.7422 11.2598 24.14 11.7296 24.3096Z" fill="url(#paint28_linear_102_171)"/>
<path d="M15.0211 7.41305C15.673 7.41255 16.196 6.93068 16.1894 6.36637C16.1829 5.80231 15.6654 5.36703 15.0336 5.36836C15.0336 5.36836 15.0336 5.36835 15.0336 5.36786C14.4015 5.36918 13.8773 5.80619 13.8641 6.36951C13.8509 6.93308 14.3692 7.41363 15.0211 7.41305Z" fill="url(#paint29_linear_102_171)"/>
<path d="M15.0816 24.884C15.7163 24.8786 16.2354 24.4351 16.2412 23.8679C16.2468 23.3013 15.7219 22.8218 15.0691 22.8265C14.4191 22.8316 13.9021 23.3154 13.9102 23.8792C13.9102 23.8821 13.9102 23.8845 13.9104 23.8871C13.923 24.4542 14.4476 24.8892 15.0816 24.884Z" fill="url(#paint30_linear_102_171)"/>
<path d="M17.5466 7.8415C18.1617 8.0586 18.8137 7.77285 18.9951 7.23605C19.1762 6.69974 18.8322 6.11891 18.235 5.9099C17.6375 5.7004 16.9986 5.93898 16.7994 6.46794C16.7578 6.57847 16.7392 6.69288 16.7413 6.80705C16.7492 7.24018 17.0597 7.67041 17.5464 7.84191C17.5464 7.84167 17.5464 7.84142 17.5464 7.84142C17.5466 7.8415 17.5466 7.8415 17.5466 7.8415Z" fill="url(#paint31_linear_102_171)"/>
<path d="M16.9771 23.7323C17.1866 24.2579 17.8334 24.4805 18.4287 24.2558C19.0242 24.0316 19.3561 23.4431 19.1634 22.91C18.971 22.3768 18.3129 22.105 17.7007 22.3363C17.2249 22.5165 16.9237 22.9434 16.9132 23.3705C16.9101 23.4925 16.9306 23.615 16.9771 23.7323Z" fill="url(#paint32_linear_102_171)"/>
<path d="M19.8769 9.15993C20.3827 9.57373 21.0949 9.53102 21.4508 9.07799C21.8072 8.62545 21.6817 7.9658 21.1987 7.56415C20.716 7.16217 20.0177 7.17026 19.6457 7.60157C19.4843 7.78959 19.4107 8.02875 19.4211 8.27509C19.4347 8.59513 19.5913 8.92615 19.8769 9.15993Z" fill="url(#paint33_linear_102_171)"/>
<path d="M19.8076 22.5283C20.1888 22.9522 20.8851 22.9428 21.3583 22.5332C21.8318 22.1237 21.9456 21.4577 21.5806 21.0131C21.2158 20.5687 20.5012 20.5402 20.0052 20.965C19.732 21.1991 19.5828 21.5217 19.5691 21.8354C19.5578 22.0909 19.6361 22.3379 19.8076 22.5283Z" fill="url(#paint34_linear_102_171)"/>
<path d="M21.6267 11.1923C21.9635 11.7566 22.6484 11.9633 23.1268 11.6637C23.606 11.3644 23.7091 10.6819 23.387 10.1307C23.0651 9.57972 22.4308 9.36031 21.937 9.6468C21.6099 9.83664 21.4301 10.2037 21.4458 10.596C21.4539 10.7958 21.5128 11.0019 21.6267 11.1923Z" fill="url(#paint35_linear_102_171)"/>
<path d="M22.0564 20.4353C22.5559 20.7116 23.1856 20.4788 23.4972 19.926C23.809 19.3735 23.6909 18.6981 23.205 18.4061C22.719 18.1141 22.0383 18.3288 21.713 18.8973C21.7131 18.8973 21.7134 18.8973 21.7134 18.8973C21.7133 18.8973 21.713 18.8971 21.713 18.8971C21.608 19.0814 21.5535 19.2789 21.5459 19.4714C21.5302 19.8728 21.7185 20.2484 22.0564 20.4353Z" fill="url(#paint36_linear_102_171)"/>
<path d="M22.5813 13.7026C22.5813 13.7024 22.5813 13.7024 22.5813 13.7021C22.7027 14.3453 23.2738 14.7727 23.8268 14.6622C24.3802 14.5522 24.7114 13.9604 24.5927 13.3355C24.5927 13.3355 24.5927 13.3355 24.593 13.3355C24.4743 12.7109 23.95 12.2749 23.394 12.3673C22.9016 12.4493 22.5481 12.928 22.5586 13.4842C22.56 13.5561 22.5674 13.629 22.5813 13.7026Z" fill="url(#paint37_linear_102_171)"/>
<path d="M23.4546 17.7018C24.0133 17.7877 24.5287 17.3481 24.6329 16.7245C24.737 16.101 24.3907 15.5134 23.8347 15.4079C23.2789 15.3024 22.7177 15.7358 22.6105 16.3789C22.6107 16.3789 22.6109 16.3792 22.611 16.3792C22.6001 16.4441 22.5943 16.5083 22.5933 16.5716C22.5841 17.138 22.9522 17.6253 23.4546 17.7018Z" fill="url(#paint38_linear_102_171)"/>
<path d="M3.41457 12.4079C3.27786 12.989 3.51502 13.5612 3.96924 13.6895C4.42314 13.8181 4.9256 13.4327 5.06338 12.8246C5.20141 12.2162 4.92007 11.6367 4.46477 11.5359C4.0107 11.435 3.55367 11.8255 3.41564 12.4043C3.41523 12.4056 3.41507 12.4068 3.41457 12.4079Z" fill="url(#paint39_linear_102_171)"/>
<path d="M4.70829 10.8818C5.10915 11.1224 5.69215 10.8852 5.97986 10.335C6.26756 9.78461 6.14093 9.14827 5.7323 8.94224C5.3235 8.7367 4.78973 8.98676 4.51104 9.51076C4.46676 9.59461 4.43149 9.67995 4.40514 9.76586C4.2662 10.2169 4.37169 10.6795 4.70829 10.8818Z" fill="url(#paint40_linear_102_171)"/>
<path d="M3.11753 15.5271C3.11753 15.5271 3.11728 15.5271 3.11728 15.5276C3.14272 16.1349 3.52599 16.6319 3.99533 16.6326C4.46492 16.633 4.84613 16.1185 4.82002 15.4881C4.79417 14.858 4.37208 14.3688 3.90323 14.3914C3.51129 14.4105 3.20872 14.7689 3.1338 15.2382C3.11909 15.3306 3.1134 15.4273 3.11753 15.5271Z" fill="url(#paint41_linear_102_171)"/>
<path d="M6.13318 8.38614C6.45681 8.71163 7.08111 8.63232 7.50106 8.17929C7.50081 8.17929 7.50081 8.17929 7.50081 8.17929C7.92059 7.72625 7.95495 7.09568 7.60712 6.79374C7.2597 6.49213 6.67571 6.61018 6.2807 7.0386C6.15127 7.1792 6.05702 7.33715 5.99944 7.498C5.88198 7.82654 5.91602 8.16772 6.13318 8.38614Z" fill="url(#paint42_linear_102_171)"/>
<path d="M3.6793 18.6847C3.6793 18.6847 3.6793 18.6845 3.6793 18.6851C3.86664 19.2769 4.35482 19.6518 4.7983 19.5138C5.24154 19.3761 5.47283 18.7649 5.28367 18.1553V18.1558C5.09435 17.5464 4.56116 17.1848 4.11957 17.3401C3.82526 17.4435 3.6447 17.7457 3.61223 18.1089C3.59629 18.2903 3.61702 18.4878 3.6793 18.6847Z" fill="url(#paint43_linear_102_171)"/>
<path d="M8.13176 6.35116C8.36825 6.74579 8.99577 6.81972 9.534 6.48837C9.53442 6.4887 9.53425 6.48813 9.53442 6.48813C10.0723 6.15711 10.2734 5.55587 9.99401 5.17693C9.71573 4.79825 9.08308 4.77363 8.59805 5.08738C8.35594 5.24418 8.18256 5.45921 8.09699 5.68573C8.01083 5.91332 8.01315 6.15314 8.13176 6.35116Z" fill="url(#paint44_linear_102_171)"/>
<path d="M5.00131 21.559C5.3047 22.0323 5.85574 22.2493 6.25867 22.0191C6.6616 21.7895 6.74569 21.1698 6.41181 20.6301C6.07785 20.0907 5.47577 19.889 5.09878 20.1716C4.91161 20.3117 4.81339 20.5426 4.80125 20.8034C4.78886 21.068 4.84874 21.3202 5.00131 21.559Z" fill="url(#paint45_linear_102_171)"/>
<path d="M10.6463 4.87994C10.7823 5.32381 11.3891 5.5571 11.9924 5.36858C11.9927 5.36858 11.993 5.36834 11.9932 5.36834C12.597 5.18007 12.952 4.64558 12.7965 4.20402C12.6406 3.76272 12.0511 3.57734 11.4668 3.7633C11.0758 3.88796 10.7815 4.14744 10.6685 4.43814C10.6128 4.58197 10.6014 4.73306 10.6463 4.87994Z" fill="url(#paint46_linear_102_171)"/>
<path d="M6.90993 23.8377C6.90993 23.8377 6.90993 23.8377 6.90993 23.8382C7.33764 24.2326 7.95178 24.3255 8.29259 24.0121C8.63365 23.6986 8.55122 23.073 8.09485 22.6526C8.09485 22.6526 8.09501 22.653 8.09501 22.6532C7.63888 22.2329 7.00492 22.1984 6.69235 22.537C6.59067 22.6472 6.53401 22.7827 6.51806 22.9281C6.48444 23.2293 6.62214 23.5718 6.90993 23.8377Z" fill="url(#paint47_linear_102_171)"/>
<path d="M13.4957 4.07921C13.4984 4.54951 14.0106 4.93109 14.637 4.90515C14.637 4.90482 14.6367 4.90457 14.6368 4.90432C15.2629 4.87847 15.7461 4.455 15.7181 3.98379C15.6901 3.513 15.1829 3.17016 14.5819 3.19693C14.0786 3.21965 13.6563 3.49391 13.5319 3.85814C13.5077 3.92886 13.4952 4.00271 13.4957 4.07921Z" fill="url(#paint48_linear_102_171)"/>
<path d="M9.45737 25.6543C9.99601 25.9417 10.6167 25.8737 10.8557 25.4712C11.0957 25.069 10.8461 24.4799 10.2867 24.1886C9.72739 23.8971 9.0869 24.0228 8.86833 24.4243C8.83405 24.4877 8.81208 24.5541 8.80118 24.623C8.74336 24.9896 9.00397 25.4122 9.45737 25.6543Z" fill="url(#paint49_linear_102_171)"/>
<path d="M17.2948 5.15228C17.2948 5.15203 17.2953 5.15179 17.2953 5.15179C17.9054 5.29181 18.486 5.01193 18.5843 4.55468C18.6826 4.09793 18.2807 3.6344 17.6951 3.49512C17.1095 3.35559 16.5409 3.59433 16.4179 4.05059C16.2949 4.50726 16.6845 5.01217 17.2948 5.15228Z" fill="url(#paint50_linear_102_171)"/>
<path d="M11.5228 25.7188C11.4278 26.178 11.8352 26.6432 12.4261 26.782C13.0169 26.9211 13.5869 26.6781 13.7055 26.2179C13.8244 25.7584 13.4273 25.2526 12.8124 25.1142C12.2005 24.9767 11.6228 25.2574 11.524 25.7131C11.5239 25.7152 11.5233 25.7167 11.5228 25.7188Z" fill="url(#paint51_linear_102_171)"/>
<path d="M19.6747 6.01624C20.2357 6.30108 20.8832 6.17015 21.087 5.76114C21.2911 5.35239 21.0337 4.81946 20.4923 4.5395C19.951 4.26011 19.3332 4.33768 19.0975 4.74189C19.0614 4.80426 19.0365 4.87076 19.0224 4.93941C18.945 5.3186 19.2003 5.77502 19.6747 6.01624Z" fill="url(#paint52_linear_102_171)"/>
<path d="M14.4104 26.2822C14.4443 26.7559 14.9609 27.0981 15.5652 27.0667C16.1695 27.0353 16.6523 26.6427 16.6424 26.1693C16.6326 25.6961 16.1139 25.317 15.4852 25.3479C15.4852 25.3481 15.4854 25.3476 15.4852 25.3476C14.9614 25.3733 14.5386 25.6757 14.4339 26.0496C14.413 26.1246 14.4049 26.2028 14.4104 26.2822Z" fill="url(#paint53_linear_102_171)"/>
<path d="M21.8676 7.52584C21.8678 7.52584 21.8677 7.52583 21.8679 7.52559C22.3248 7.94219 22.9559 7.97077 23.2562 7.62117C23.5567 7.27206 23.4374 6.69039 23.006 6.29973C22.5745 5.90906 21.9757 5.83628 21.65 6.16036C21.5456 6.26487 21.4831 6.3987 21.4615 6.54748C21.4161 6.86148 21.5574 7.24356 21.8676 7.52584Z" fill="url(#paint54_linear_102_171)"/>
<path d="M17.3413 26.0371C17.5042 26.4796 18.0969 26.6593 18.6751 26.4643C19.2526 26.2699 19.6149 25.7766 19.4747 25.3332C19.3349 24.8902 18.7275 24.6631 18.1271 24.8582C17.728 24.9883 17.4384 25.2715 17.339 25.576C17.289 25.7296 17.2869 25.8889 17.3413 26.0371Z" fill="url(#paint55_linear_102_171)"/>
<path d="M23.5775 9.53707C23.9154 10.0718 24.5197 10.2663 24.8944 9.98202C25.2689 9.69891 25.2846 9.07512 24.9675 8.5935C24.9675 8.5935 24.9675 8.5935 24.9671 8.5935C24.6503 8.11304 24.0951 7.90139 23.7013 8.14079C23.5076 8.25868 23.3917 8.46677 23.3651 8.71138C23.3374 8.96409 23.4058 9.2652 23.5775 9.53707Z" fill="url(#paint56_linear_102_171)"/>
<path d="M20.1179 25.0271C20.398 25.4018 21.019 25.4139 21.5045 25.0928C21.5045 25.0928 21.5045 25.0928 21.5042 25.0928C21.9896 24.772 22.2009 24.22 21.9604 23.8287C21.7198 23.4378 21.0922 23.371 20.5611 23.7086C20.2989 23.8754 20.1176 24.1087 20.0367 24.3465C19.954 24.59 19.9763 24.8372 20.1179 25.0271Z" fill="url(#paint57_linear_102_171)"/>
<path d="M24.7294 11.987C24.7294 11.987 24.7296 11.9864 24.7298 11.9864C24.9258 12.5893 25.4647 12.9391 25.9053 12.7783C26.3458 12.6181 26.524 12.0247 26.3295 11.4412C26.1353 10.8577 25.6431 10.4906 25.201 10.632C24.9081 10.726 24.7103 11.0232 24.667 11.391C24.645 11.5782 24.6634 11.7836 24.7294 11.987Z" fill="url(#paint58_linear_102_171)"/>
<path d="M22.4804 23.3837C22.831 23.6821 23.4128 23.5616 23.8027 23.1329C23.8027 23.1329 23.8027 23.1329 23.8027 23.1326C24.1925 22.7042 24.2647 22.1108 23.94 21.7864C23.6153 21.4621 22.9918 21.5454 22.5756 22.0003C22.5757 22.0003 22.5757 22 22.5756 22.0003C22.4408 22.1477 22.3455 22.3146 22.2911 22.4821C22.1777 22.8318 22.2435 23.1822 22.4804 23.3837Z" fill="url(#paint59_linear_102_171)"/>
<path d="M25.2233 14.6299C25.2561 15.2569 25.6853 15.7366 26.1573 15.7033C26.6292 15.6703 26.9675 15.1581 26.9343 14.5566C26.9011 13.9553 26.5095 13.4703 26.0383 13.4782C25.6471 13.485 25.3209 13.8408 25.2403 14.3227C25.2239 14.4212 25.2177 14.5238 25.2233 14.6299Z" fill="url(#paint60_linear_102_171)"/>
<path d="M24.3407 21.2268C24.7496 21.4313 25.28 21.1799 25.5625 20.6388C25.5625 20.6388 25.5625 20.6386 25.5629 20.6386C25.8454 20.0981 25.7724 19.4801 25.3692 19.242C24.9658 19.005 24.3803 19.2548 24.0925 19.815C24.0477 19.9023 24.0131 19.9911 23.9878 20.0804C23.8506 20.5655 23.9954 21.0544 24.3407 21.2268Z" fill="url(#paint61_linear_102_171)"/>
<path d="M25.0014 17.293C24.8664 17.9052 25.1525 18.4829 25.6108 18.5764C26.0691 18.6702 26.5298 18.2635 26.6647 17.6758C26.7996 17.0885 26.5553 16.5228 26.0967 16.4042C25.6411 16.2863 25.1427 16.6757 25.004 17.2814C25.0031 17.2854 25.0021 17.2896 25.0014 17.293Z" fill="url(#paint62_linear_102_171)"/>
<path d="M1.45117 16.409C1.51552 16.9836 1.85204 17.443 2.22085 17.4249C2.59008 17.4068 2.85688 16.898 2.79336 16.2962C2.72992 15.6942 2.36037 15.2495 1.98981 15.2945C1.64305 15.3372 1.41664 15.7753 1.44249 16.3016C1.44406 16.3371 1.44696 16.3728 1.45117 16.409Z" fill="url(#paint63_linear_102_171)"/>
<path d="M1.9924 14.6377C2.36204 14.7037 2.73507 14.2789 2.80272 13.6892C2.80305 13.6892 2.80305 13.6892 2.8033 13.6892C2.87104 13.1003 2.60812 12.596 2.24029 12.5626C1.87255 12.5299 1.53479 12.9528 1.46499 13.5093C1.46053 13.5455 1.45731 13.581 1.45533 13.6165C1.42559 14.1281 1.64671 14.5761 1.9924 14.6377Z" fill="url(#paint64_linear_102_171)"/>
<path d="M2.11839 19.3409C2.11839 19.3409 2.11839 19.3409 2.11839 19.3404C2.31226 19.9066 2.72188 20.2823 3.05997 20.1695C3.3983 20.0566 3.54153 19.4821 3.35073 18.8955C3.15967 18.3091 2.70734 17.9519 2.36603 18.0852C2.09146 18.1931 1.97244 18.5769 2.03852 19.0162C2.05438 19.1218 2.08073 19.231 2.11839 19.3409Z" fill="url(#paint65_linear_102_171)"/>
<path d="M2.38829 11.9348C2.72745 12.0738 3.18044 11.7454 3.37166 11.1902L3.37175 11.1897C3.56297 10.6345 3.41842 10.0907 3.07983 9.98648C2.74125 9.88305 2.33485 10.2287 2.14296 10.7487C2.1053 10.8506 2.07879 10.9523 2.06301 11.0509C1.99874 11.457 2.11546 11.8226 2.38829 11.9348Z" fill="url(#paint66_linear_102_171)"/>
<path d="M3.28905 21.9387C3.54701 22.3936 3.98603 22.6353 4.30595 22.4726C4.62611 22.3106 4.6865 21.7795 4.40995 21.3021C4.1334 20.825 3.64002 20.6074 3.33852 20.7917C3.13607 20.9155 3.06833 21.1861 3.12244 21.4873C3.14879 21.6347 3.20454 21.7895 3.28905 21.9387Z" fill="url(#paint67_linear_102_171)"/>
<path d="M3.35623 9.40955C3.64707 9.60253 4.14722 9.38154 4.44211 8.8915C4.73725 8.40153 4.69801 7.84986 4.38528 7.67332C4.07264 7.49679 3.62494 7.74189 3.35194 8.21483C3.35194 8.21483 3.35194 8.21483 3.35194 8.21516C3.2619 8.37155 3.20127 8.53338 3.16955 8.68761C3.10545 9.00021 3.16146 9.28051 3.35623 9.40955Z" fill="url(#paint68_linear_102_171)"/>
<path d="M4.80975 24.1005C5.14891 24.4878 5.65237 24.6418 5.95024 24.4284C6.24851 24.2153 6.20027 23.6844 5.82683 23.2649C5.45322 22.8454 4.92044 22.7202 4.65645 22.9653C4.5152 23.0962 4.47522 23.3039 4.51726 23.5257C4.55386 23.7179 4.65215 23.9206 4.80975 24.1005Z" fill="url(#paint69_linear_102_171)"/>
<path d="M4.75126 7.16474C5.00559 7.42811 5.53829 7.30667 5.92173 6.87982C6.30549 6.45297 6.37132 5.9046 6.08618 5.66842C5.80096 5.43224 5.2947 5.57094 4.94249 5.96978C4.77852 6.15599 4.67328 6.36912 4.63066 6.57234C4.58218 6.80497 4.61571 7.02414 4.75126 7.16474Z" fill="url(#paint70_linear_102_171)"/>
<path d="M6.79229 25.9062C7.23198 26.228 7.80168 26.3174 8.05783 26.0657C8.31448 25.8145 8.14019 25.2953 7.66878 24.9447C7.19729 24.5946 6.63172 24.5649 6.40688 24.8446C6.31717 24.9562 6.2928 25.0986 6.32163 25.2482C6.365 25.4728 6.52822 25.7129 6.79229 25.9062Z" fill="url(#paint71_linear_102_171)"/>
<path d="M6.5483 5.25134C6.75753 5.55485 7.30947 5.54469 7.77072 5.20574C7.77055 5.20598 7.77047 5.20631 7.77047 5.20631C8.23172 4.86794 8.4065 4.34948 8.17489 4.07265C7.94311 3.79607 7.40306 3.84473 6.96486 4.15567C6.96486 4.15567 6.96486 4.15567 6.96461 4.15567C6.70062 4.3432 6.53079 4.5893 6.48007 4.82498C6.44662 4.98004 6.46537 5.13064 6.5483 5.25134Z" fill="url(#paint72_linear_102_171)"/>
<path d="M9.3125 27.419C9.3125 27.419 9.3125 27.419 9.3125 27.4195C9.85568 27.6905 10.3964 27.6717 10.5727 27.3588C10.7494 27.0461 10.4602 26.5569 9.91301 26.2982C9.36594 26.0391 8.78583 26.1009 8.62724 26.4101C8.58519 26.4914 8.57635 26.5816 8.59486 26.6751C8.64673 26.9359 8.91287 27.2194 9.3125 27.419Z" fill="url(#paint73_linear_102_171)"/>
<path d="M8.71599 3.75754C8.85245 4.08616 9.40141 4.18092 9.9603 3.93375C10.5198 3.68657 10.817 3.20388 10.6398 2.88814C10.4624 2.57282 9.85837 2.55423 9.36796 2.77993C9.00617 2.9468 8.7501 3.21883 8.69435 3.4841C8.67452 3.57811 8.68014 3.67137 8.71599 3.75754Z" fill="url(#paint74_linear_102_171)"/>
<path d="M12.087 28.475C12.6429 28.617 13.1658 28.4526 13.2634 28.0896C13.3608 27.7271 12.9719 27.3042 12.3865 27.1678C12.3869 27.1676 12.3865 27.1678 12.3869 27.1678C11.8018 27.0311 11.2666 27.2304 11.1985 27.5878C11.1893 27.6344 11.1888 27.6813 11.1956 27.7285C11.24 28.0417 11.6044 28.3517 12.087 28.475Z" fill="url(#paint75_linear_102_171)"/>
<path d="M11.2788 2.67109C11.344 3.02747 11.8827 3.23202 12.4711 3.09976C13.0591 2.96725 13.4525 2.54875 13.3607 2.18972C13.2693 1.83086 12.75 1.66729 12.1883 1.80244C11.6988 1.91975 11.324 2.22244 11.277 2.5333C11.2699 2.57948 11.2704 2.62524 11.2788 2.67109Z" fill="url(#paint76_linear_102_171)"/>
<path d="M14.9669 28.8403C15.5344 28.8403 16.0082 28.5462 16.025 28.1684C16.0417 27.7905 15.5705 27.4679 14.9724 27.4676C14.3746 27.4673 13.901 27.7899 13.9144 28.1679C13.9144 28.1685 13.9146 28.1693 13.9146 28.1697C13.9298 28.5473 14.4002 28.8406 14.9669 28.8403Z" fill="url(#paint77_linear_102_171)"/>
<path d="M15.053 2.8033C15.064 2.8033 15.0745 2.80305 15.0852 2.80305C15.0978 2.80305 15.1107 2.80305 15.1234 2.8033C15.7168 2.80437 16.1885 2.48384 16.1775 2.10854C16.1673 1.73382 15.7049 1.44336 15.1434 1.44312C15.131 1.44312 15.1187 1.44311 15.1064 1.44336C15.0927 1.44311 15.0791 1.44311 15.0656 1.44336C14.504 1.4465 14.0311 1.7377 14.0119 2.11193C13.9926 2.48648 14.4598 2.80594 15.053 2.8033Z" fill="url(#paint78_linear_102_171)"/>
<path d="M16.6788 28.0907C16.7735 28.4528 17.296 28.6181 17.8536 28.4793C18.4114 28.3405 18.817 27.9563 18.7507 27.5989C18.6851 27.2414 18.15 27.0387 17.5634 27.1728C17.0514 27.2899 16.6851 27.6261 16.6652 27.9506C16.6623 27.9977 16.6668 28.0446 16.6788 28.0907Z" fill="url(#paint79_linear_102_171)"/>
<path d="M17.6852 3.09906C18.265 3.23363 18.7986 3.03248 18.8673 2.67585C18.936 2.31947 18.5376 1.93558 17.9879 1.79778C17.4382 1.66007 16.9207 1.82554 16.8218 2.18564C16.8084 2.23322 16.8035 2.28196 16.8064 2.3307C16.8251 2.65148 17.1823 2.98299 17.6852 3.09906Z" fill="url(#paint80_linear_102_171)"/>
<path d="M20.6292 27.4638C21.13 27.2231 21.4293 26.8015 21.29 26.4783C21.1506 26.1555 20.5991 26.0705 20.0491 26.3228C19.642 26.5097 19.3729 26.8247 19.334 27.1028C19.3204 27.2008 19.3349 27.2939 19.3804 27.3757C19.5551 27.6905 20.1282 27.7046 20.629 27.4637L20.6292 27.4638Z" fill="url(#paint81_linear_102_171)"/>
<path d="M20.1466 3.95507C20.6932 4.21067 21.2448 4.13211 21.3891 3.80976C21.5339 3.48791 21.2365 3.0637 20.734 2.8191C20.734 2.8191 20.7339 2.8191 20.7335 2.8191C20.2315 2.57473 19.6668 2.58704 19.4902 2.90022C19.4433 2.98382 19.4284 3.07882 19.4429 3.17886C19.4819 3.45544 19.7454 3.76755 20.1466 3.95507Z" fill="url(#paint82_linear_102_171)"/>
<path d="M21.8342 26.1581C22.0692 26.4285 22.6132 26.3738 23.05 26.0669C23.05 26.0669 23.0499 26.0672 23.0496 26.0672C23.4867 25.7602 23.6698 25.2892 23.46 24.9882C23.2499 24.6878 22.6991 24.6965 22.2372 25.0338C22.2372 25.0338 22.237 25.0338 22.2367 25.0338C21.9576 25.2375 21.7812 25.5097 21.7392 25.75C21.7117 25.9075 21.7414 26.0512 21.8342 26.1581Z" fill="url(#paint83_linear_102_171)"/>
<path d="M22.3306 5.26597C22.3304 5.26597 22.3303 5.26597 22.3301 5.26572C22.7935 5.60872 23.3514 5.62392 23.5685 5.32231C23.7855 5.02086 23.6063 4.54189 23.1669 4.23103C22.7277 3.92016 22.1769 3.86465 21.9359 4.13445C21.8394 4.24284 21.8084 4.38922 21.8363 4.54949C21.8783 4.78931 22.053 5.06068 22.3306 5.26597Z" fill="url(#paint84_linear_102_171)"/>
<path d="M23.9218 24.5787C24.2067 24.8141 24.7096 24.6827 25.0577 24.2927C25.4061 23.9025 25.4994 23.3738 25.2477 23.1069C24.9962 22.8403 24.4654 22.9566 24.083 23.3785C24.0832 23.3785 24.0833 23.3779 24.0834 23.3779C23.9044 23.5754 23.793 23.8025 23.7565 24.0093C23.7151 24.2445 23.7701 24.4538 23.9218 24.5787Z" fill="url(#paint85_linear_102_171)"/>
<path d="M24.1631 6.93301C24.1631 6.93325 24.163 6.93325 24.163 6.93325C24.533 7.36746 25.0639 7.50186 25.3303 7.24387C25.5968 6.98621 25.5256 6.45064 25.1873 6.0461C25.1873 6.0461 25.1873 6.0461 25.187 6.0461C24.8491 5.64172 24.3428 5.49592 24.0449 5.724C23.8851 5.84734 23.8223 6.05899 23.8577 6.29881C23.8883 6.50566 23.9922 6.73243 24.1631 6.93301Z" fill="url(#paint86_linear_102_171)"/>
<path d="M25.6124 22.6031C25.9221 22.7843 26.3657 22.5476 26.6413 22.0733C26.9169 21.5992 26.9409 21.0576 26.6546 20.8575C26.3682 20.6576 25.8641 20.8826 25.5653 21.3755C25.466 21.5391 25.4028 21.711 25.3748 21.873C25.3185 22.1983 25.4056 22.4821 25.6124 22.6031Z" fill="url(#paint87_linear_102_171)"/>
<path d="M25.6253 8.9508C25.6253 8.95055 25.6252 8.95055 25.6252 8.95055C25.9122 9.43886 26.4182 9.69288 26.7043 9.4719C27.0002 9.28182 26.998 8.75369 26.7336 8.27934C26.4694 7.8059 26.0238 7.56162 25.7057 7.7375C25.4916 7.85612 25.3971 8.1408 25.4481 8.46595C25.4729 8.62415 25.5318 8.79128 25.6253 8.9508Z" fill="url(#paint88_linear_102_171)"/>
<path d="M27.8982 19.4716C28.1017 18.9322 28.0099 18.3956 27.6694 18.2586C27.3291 18.1209 26.8704 18.4578 26.6717 19.0244C26.6717 19.0246 26.6717 19.0246 26.6718 19.0249C26.6325 19.1367 26.6064 19.2491 26.5923 19.3575C26.535 19.7971 26.6751 20.1721 26.9444 20.2604C27.28 20.3706 27.6947 20.0105 27.8982 19.4716Z" fill="url(#paint89_linear_102_171)"/>
<path d="M26.6945 11.3494C26.8876 11.9282 27.3428 12.2788 27.6838 12.1463C28.0251 12.014 28.1227 11.4689 27.9269 10.9124C27.7311 10.3562 27.3218 9.98249 26.9837 10.0928C26.7104 10.1814 26.5641 10.567 26.6196 11.0193C26.6329 11.1268 26.6576 11.2383 26.6945 11.3494Z" fill="url(#paint90_linear_102_171)"/>
<path d="M27.8222 17.6218C28.193 17.65 28.5369 17.2169 28.6081 16.6594C28.6081 16.6594 28.608 16.6594 28.6077 16.6594C28.6791 16.1021 28.4479 15.6046 28.075 15.5441C27.7021 15.4846 27.3271 15.9107 27.2582 16.4999C27.2582 16.4999 27.2581 16.4999 27.2579 16.4999C27.2535 16.5389 27.2502 16.5777 27.2486 16.6159C27.2244 17.1557 27.4762 17.5956 27.8222 17.6218Z" fill="url(#paint91_linear_102_171)"/>
<path d="M28.6138 13.788C28.5454 13.2242 28.205 12.7759 27.8346 12.7957C27.487 12.8143 27.2315 13.258 27.2562 13.805C27.2577 13.8406 27.2608 13.8765 27.2647 13.9129C27.2647 13.9127 27.2647 13.9129 27.2647 13.9127C27.3306 14.507 27.7039 14.9434 28.0768 14.8933C28.4498 14.8443 28.6825 14.3526 28.6141 13.7885L28.6138 13.788Z" fill="url(#paint92_linear_102_171)"/>
<path d="M0.223384 13.2381C0.144748 13.7454 0.28509 14.2052 0.553049 14.2628C0.820926 14.3201 1.11507 13.9229 1.18982 13.3764C1.26466 12.8302 1.09409 12.3729 0.829848 12.3548C0.565606 12.3365 0.302104 12.7316 0.223384 13.2381Z" fill="url(#paint93_linear_102_171)"/>
<path d="M0.121084 15.8635C0.160815 16.3949 0.400277 16.8427 0.670466 16.8526C0.940573 16.8625 1.14377 16.4048 1.10577 15.8394C1.10561 15.8392 1.10536 15.8394 1.10536 15.8394C1.06745 15.2743 0.801554 14.8432 0.530043 14.8673C0.286946 14.8891 0.120255 15.246 0.115795 15.6986C0.115217 15.7523 0.116953 15.8073 0.121084 15.8635Z" fill="url(#paint94_linear_102_171)"/>
<path d="M0.975214 11.7802C1.21542 11.874 1.57548 11.5393 1.75283 11.0229C1.93009 10.507 1.8593 10.038 1.62429 9.98585C1.38905 9.93455 1.0726 10.2851 0.890132 10.7593H0.890384C0.870808 10.8107 0.853543 10.8612 0.838592 10.9113C0.716177 11.3246 0.760946 11.697 0.975214 11.7802Z" fill="url(#paint95_linear_102_171)"/>
<path d="M0.62236 18.5784C0.779385 19.1177 1.08873 19.5253 1.33306 19.4748C1.57781 19.4246 1.67347 18.913 1.52355 18.3467C1.37354 17.7804 1.03033 17.3961 0.778644 17.4733C0.581557 17.5346 0.500359 17.8497 0.550416 18.2395C0.564376 18.3475 0.588328 18.4616 0.62236 18.5784Z" fill="url(#paint96_linear_102_171)"/>
<path d="M1.86834 9.44068C2.06658 9.57765 2.4643 9.30718 2.71079 8.82424C2.95719 8.34163 2.94538 7.84167 2.72987 7.70949C2.51428 7.57748 2.19965 7.84853 1.97043 8.32643C1.97043 8.32643 1.97035 8.32643 1.9706 8.32618C1.92054 8.43068 1.8785 8.53618 1.84488 8.63861C1.72444 9.00623 1.71346 9.33361 1.86834 9.44068Z" fill="url(#paint97_linear_102_171)"/>
<path d="M1.60887 21.1605C1.60887 21.1605 1.6087 21.1605 1.6087 21.161C1.82157 21.6295 2.12628 21.9191 2.34609 21.8165C2.56581 21.7146 2.60769 21.2462 2.39325 20.7735C2.17882 20.3016 1.7692 19.9507 1.56302 20.0894C1.42475 20.183 1.39782 20.4254 1.45837 20.7127C1.4881 20.8531 1.53915 21.0068 1.60887 21.1605Z" fill="url(#paint98_linear_102_171)"/>
<path d="M3.01909 7.2004C3.19941 7.40701 3.61936 7.21948 3.92342 6.78743C3.92333 6.78776 3.923 6.78801 3.92275 6.78825C4.22722 6.35637 4.27216 5.86674 4.04913 5.68995C3.82611 5.51341 3.45754 5.68425 3.19644 6.0854C3.11012 6.21841 3.0442 6.36116 2.99861 6.50176C2.90659 6.78693 2.89833 7.06244 3.01909 7.2004Z" fill="url(#paint99_linear_102_171)"/>
<path d="M2.75534 23.3816C2.99629 23.7847 3.33124 23.9782 3.54815 23.8297C3.76531 23.6813 3.75011 23.2156 3.47595 22.7849C3.20213 22.3544 2.79622 22.1454 2.61169 22.3212C2.50894 22.4191 2.49291 22.6137 2.53868 22.836C2.57477 23.0114 2.64886 23.2038 2.75534 23.3816Z" fill="url(#paint100_linear_102_171)"/>
<path d="M4.40344 5.26778C4.58607 5.49711 5.04467 5.39897 5.41935 5.04151C5.41935 5.04151 5.41935 5.04151 5.41911 5.04151C5.79428 4.68431 5.91397 4.23367 5.68657 4.04953C5.45933 3.86564 5.0023 3.98063 4.67214 4.29207V4.29182C4.52585 4.43003 4.42392 4.5893 4.36833 4.74693C4.29886 4.94461 4.30134 5.14048 4.40344 5.26778Z" fill="url(#paint101_linear_102_171)"/>
<path d="M4.08436 25.2045C4.37611 25.5259 4.79003 25.6675 5.02024 25.5118C5.25086 25.3562 5.17098 24.9196 4.83017 24.5517C4.48911 24.1838 4.04967 24.0555 3.86819 24.2574C3.78741 24.3475 3.76692 24.4837 3.79179 24.6335C3.82276 24.8204 3.92254 25.0265 4.08436 25.2045Z" fill="url(#paint102_linear_102_171)"/>
<path d="M6.1312 3.71226C6.30102 3.93456 6.79605 3.90705 7.24409 3.62006C7.69203 3.33332 7.90358 2.92011 7.71087 2.73316C7.51832 2.54613 7.00165 2.63502 6.57667 2.88632C6.57667 2.88632 6.57667 2.88582 6.57691 2.88549C6.34042 3.0256 6.17927 3.19322 6.10955 3.35662C6.05396 3.48657 6.05603 3.61387 6.1312 3.71226Z" fill="url(#paint103_linear_102_171)"/>
<path d="M5.77615 26.683C5.77615 26.683 5.7764 26.683 5.77656 26.6828C6.16206 26.9546 6.67328 27.0884 6.89779 26.9352C7.1223 26.7826 6.94785 26.369 6.52097 26.0546C6.09383 25.7396 5.60549 25.6712 5.42261 25.8668C5.36198 25.9318 5.34009 26.0159 5.35042 26.1072C5.37115 26.291 5.51868 26.5016 5.77615 26.683Z" fill="url(#paint104_linear_102_171)"/>
<path d="M8.23889 2.45944C8.35321 2.68174 8.84667 2.71685 9.33551 2.49579L9.33567 2.49604C9.82468 2.2753 10.1566 1.87332 10.0206 1.66514C9.88497 1.45688 9.40423 1.49595 8.91441 1.71066C8.91441 1.71066 8.91465 1.71099 8.91441 1.71099C8.58598 1.85523 8.34297 2.0406 8.25293 2.21582C8.20874 2.30207 8.20139 2.38616 8.23889 2.45944Z" fill="url(#paint105_linear_102_171)"/>
<path d="M8.01827 28.0182L8.01785 28.0178C8.52032 28.2795 9.08969 28.4028 9.2601 28.2261C9.43117 28.0496 9.13405 27.6358 8.61415 27.3583C8.61424 27.3585 8.61424 27.3583 8.61424 27.3583C8.09467 27.0812 7.56619 27.0571 7.41255 27.2491C7.3791 27.2913 7.36563 27.3397 7.36985 27.3923C7.38604 27.5798 7.62616 27.8141 8.01827 28.0182Z" fill="url(#paint106_linear_102_171)"/>
<path d="M10.6225 1.43817C10.6717 1.68302 11.1735 1.78026 11.7273 1.62751C11.7271 1.62751 11.7271 1.62751 11.7269 1.62751C12.2807 1.47509 12.6533 1.12871 12.5751 0.878316C12.497 0.628255 12.0227 0.571171 11.498 0.729287C11.0869 0.852872 10.7555 1.06824 10.6515 1.27245C10.6227 1.32929 10.6116 1.3853 10.6225 1.43817Z" fill="url(#paint107_linear_102_171)"/>
<path d="M10.6884 29.28C10.6884 29.28 10.6884 29.28 10.6887 29.2803C11.1929 29.4845 11.6677 29.4702 11.7615 29.2293C11.8559 28.9885 11.506 28.6193 10.9681 28.4271C10.4304 28.2352 9.93525 28.2859 9.87454 28.5143C9.86801 28.5392 9.86669 28.5654 9.87008 28.5923C9.89841 28.8131 10.2391 29.098 10.6884 29.28Z" fill="url(#paint108_linear_102_171)"/>
<path d="M14.1804 1.18568C14.735 1.14091 15.1547 0.868543 15.1244 0.595928C15.0938 0.323066 14.655 0.15231 14.137 0.199976C13.6743 0.242934 13.2832 0.443263 13.1979 0.677382C13.1878 0.705387 13.182 0.733722 13.1813 0.76247C13.1754 1.03252 13.6262 1.23071 14.1804 1.18568Z" fill="url(#paint109_linear_102_171)"/>
<path d="M13.2789 30.0131C13.7987 30.0961 14.2557 29.9507 14.3046 29.6771C14.3536 29.4037 13.9473 29.1068 13.3914 29.029C12.8357 28.9515 12.371 29.1194 12.3574 29.3873C12.3574 29.3878 12.3574 29.3881 12.3574 29.3886C12.3459 29.6564 12.7603 29.9303 13.2789 30.0131Z" fill="url(#paint110_linear_102_171)"/>
<path d="M16.6199 1.24371C16.6331 1.24528 16.6463 1.24652 16.6596 1.24817C16.6735 1.25024 16.6878 1.25263 16.7022 1.25445C17.2502 1.32987 17.7106 1.15986 17.7242 0.893858C17.7385 0.627769 17.3297 0.359368 16.8192 0.279979C16.8049 0.277914 16.7907 0.275766 16.7766 0.274031C16.7618 0.271387 16.7468 0.269488 16.7318 0.267175C16.2216 0.19233 15.7715 0.340532 15.7218 0.610998C15.6719 0.881465 16.0719 1.17242 16.6199 1.24371Z" fill="url(#paint111_linear_102_171)"/>
<path d="M14.9123 29.6967C14.9454 29.9733 15.3938 30.15 15.9162 30.1028C16.4391 30.0555 16.8675 29.8056 16.8701 29.5326C16.8732 29.2594 16.4203 29.0601 15.8615 29.1041C15.3617 29.1434 14.9678 29.3655 14.9165 29.6097C14.9105 29.6386 14.9091 29.6676 14.9123 29.6967Z" fill="url(#paint112_linear_102_171)"/>
<path d="M19.1004 1.83777C19.6352 2.02447 20.1321 1.96738 20.1944 1.73715C20.2566 1.50675 19.8848 1.17936 19.3813 0.982667C18.8775 0.785806 18.4078 0.805633 18.3139 1.04586C18.3036 1.07255 18.2985 1.10055 18.2982 1.12996C18.2969 1.36507 18.6243 1.67172 19.1004 1.83777Z" fill="url(#paint113_linear_102_171)"/>
<path d="M17.4729 29.4136C17.5532 29.6663 18.025 29.7203 18.5379 29.5536C18.5379 29.5536 18.5379 29.5536 18.5384 29.5536C19.0516 29.3871 19.4389 29.0729 19.3922 28.8291C19.3455 28.585 18.8557 28.4946 18.3089 28.6525C17.8799 28.7764 17.5567 29.0187 17.4797 29.2394C17.4585 29.2999 17.4556 29.3591 17.4729 29.4136Z" fill="url(#paint114_linear_102_171)"/>
<path d="M21.3825 2.83945C21.3825 2.83945 21.3823 2.83887 21.3823 2.83862C21.8748 3.08951 22.3861 3.07902 22.5288 2.86274C22.6716 2.64672 22.4066 2.33354 21.9201 2.10463C21.4331 1.87571 20.9109 1.79847 20.7621 1.99277C20.7293 2.03556 20.717 2.08786 20.7234 2.14701C20.7459 2.35527 20.9986 2.64383 21.3825 2.83945Z" fill="url(#paint115_linear_102_171)"/>
<path d="M19.9768 28.5903C20.1043 28.7948 20.6008 28.7267 21.1 28.4974C21.5994 28.2683 21.8996 27.9595 21.7815 27.7455C21.6634 27.5312 21.1629 27.5072 20.663 27.7439C20.3268 27.9031 20.0686 28.1416 19.981 28.3397C19.9386 28.4361 19.9349 28.5235 19.9768 28.5903Z" fill="url(#paint116_linear_102_171)"/>
<path d="M23.4329 4.0573C23.8627 4.36114 24.3551 4.40277 24.5401 4.17386C24.7253 3.9447 24.5671 3.57204 24.1698 3.31512C23.7724 3.05829 23.257 2.96841 23.0402 3.15098C22.968 3.2117 22.9388 3.29712 22.9489 3.39691C22.9689 3.59666 23.1465 3.85465 23.4329 4.0573Z" fill="url(#paint117_linear_102_171)"/>
<path d="M23.451 27.3047C23.8738 27.0588 24.0593 26.7178 23.8874 26.501C23.7156 26.2845 23.2217 26.3099 22.7741 26.5942C22.5236 26.7535 22.3457 26.954 22.2734 27.129C22.2166 27.2668 22.2251 27.3881 22.3118 27.4669C22.5085 27.6457 23.0284 27.551 23.451 27.3047Z" fill="url(#paint118_linear_102_171)"/>
<path d="M25.1548 5.55425C25.1549 5.55392 25.1549 5.55425 25.1549 5.55392C25.5041 5.9298 25.9519 6.04785 26.141 5.81423C26.3298 5.58069 26.2278 5.11394 25.9261 4.78251C25.6244 4.45041 25.191 4.33699 24.9549 4.52658C24.8495 4.61142 24.8058 4.7474 24.8234 4.9084C24.8451 5.10774 24.9614 5.34608 25.1548 5.55425Z" fill="url(#paint119_linear_102_171)"/>
<path d="M24.3281 26.1738C24.5562 26.3547 25.0088 26.2472 25.3331 25.9481C25.657 25.6493 25.7745 25.225 25.5923 24.9959C25.4104 24.767 24.9564 24.8566 24.5859 25.2042H24.586C24.4208 25.3592 24.304 25.5352 24.2476 25.6965C24.1775 25.8972 24.2017 26.0735 24.3281 26.1738Z" fill="url(#paint120_linear_102_171)"/>
<path d="M26.5396 7.38882C26.8192 7.83979 27.2294 8.05325 27.417 7.85871C27.6049 7.66416 27.5235 7.14041 27.2815 6.7091C27.0394 6.27804 26.6926 6.08845 26.4675 6.26317C26.3416 6.36131 26.2885 6.5585 26.3187 6.79526C26.3423 6.98089 26.4167 7.19039 26.5396 7.38882Z" fill="url(#paint121_linear_102_171)"/>
<path d="M25.9409 24.5871C26.1617 24.7662 26.5241 24.6075 26.7809 24.2163C27.0378 23.8249 27.1358 23.3186 26.9597 23.1062C26.7836 22.8938 26.3674 23.0735 26.0656 23.498C26.0656 23.4982 26.0656 23.4985 26.0656 23.4982C25.9653 23.6396 25.8918 23.7887 25.848 23.9305C25.7599 24.2155 25.7935 24.4675 25.9409 24.5871Z" fill="url(#paint122_linear_102_171)"/>
<path d="M27.6458 9.48813C27.8677 9.97702 28.2761 10.3174 28.4821 10.1825C28.6886 10.048 28.6416 9.56587 28.4271 9.07351C28.2125 8.58173 27.9062 8.27715 27.6841 8.39082C27.5349 8.46781 27.467 8.71556 27.508 9.02031C27.528 9.16785 27.5735 9.3287 27.6458 9.48813Z" fill="url(#paint123_linear_102_171)"/>
<path d="M28.0059 21.9953C28.2394 21.5132 28.3235 20.9953 28.1317 20.8481C27.9399 20.7012 27.5376 20.9777 27.2851 21.4668L27.2856 21.4666C27.2301 21.5742 27.1863 21.6832 27.1548 21.7887C27.0432 22.1625 27.0862 22.4913 27.2505 22.6001C27.4612 22.7397 27.7721 22.4776 28.0056 21.9958L28.0059 21.9953Z" fill="url(#paint124_linear_102_171)"/>
<path d="M28.5282 11.8902C28.6818 12.4449 29.029 12.8193 29.2811 12.7421C29.5332 12.6656 29.5909 12.1914 29.4298 11.6654C29.269 11.1403 28.9586 10.7386 28.7137 10.7862C28.5217 10.8241 28.4227 11.1387 28.4628 11.5438C28.4738 11.6542 28.4954 11.7715 28.5282 11.8902Z" fill="url(#paint125_linear_102_171)"/>
<path d="M28.3895 20.2817C28.6192 20.3432 28.9482 19.9711 29.1473 19.4677C29.1473 19.4677 29.1473 19.4677 29.1475 19.4672C29.3466 18.9641 29.3291 18.4946 29.089 18.4011C28.849 18.3076 28.4826 18.6531 28.2939 19.188C28.2731 19.247 28.2552 19.3054 28.2404 19.363C28.1194 19.8291 28.1851 20.2266 28.3895 20.2817Z" fill="url(#paint126_linear_102_171)"/>
<path d="M28.9651 14.346C29.0066 14.9012 29.277 15.3228 29.5515 15.2937C29.8261 15.2644 30.0026 14.8258 29.958 14.3073C29.958 14.3073 29.958 14.3073 29.958 14.3067C29.9134 13.7885 29.6679 13.3553 29.3962 13.348C29.1528 13.3418 28.9662 13.7 28.9599 14.1759C28.9591 14.2312 28.9606 14.2884 28.9651 14.346Z" fill="url(#paint127_linear_102_171)"/>
<path d="M29.244 17.8114C29.5107 17.8253 29.7824 17.4168 29.8639 16.9056C29.9456 16.3949 29.8016 15.9443 29.5305 15.8932C29.259 15.8418 28.9631 16.2404 28.8862 16.7883C28.886 16.79 28.8857 16.7919 28.8855 16.7933C28.8101 17.3398 28.9783 17.7978 29.244 17.8114Z" fill="url(#paint128_linear_102_171)"/>
<defs>
<radialGradient id="paint0_radial_102_171" cx="0" cy="0" r="1" gradientUnits="userSpaceOnUse" gradientTransform="translate(15.002 30.3123) rotate(90) scale(1.78771 11.6201)">
<stop offset="0.255208" stop-opacity="0.5"/>
<stop offset="1" stop-opacity="0"/>
</radialGradient>
<radialGradient id="paint1_radial_102_171" cx="0" cy="0" r="1" gradientUnits="userSpaceOnUse" gradientTransform="translate(19.5692 9.61967) rotate(-90) scale(22.4925 20.2106)">
<stop stop-color="#F6F5FA"/>
<stop offset="0.3553" stop-color="#F0EFF4"/>
<stop offset="0.8382" stop-color="#DEDFE2"/>
<stop offset="1" stop-color="#D7D8DB"/>
</radialGradient>
<linearGradient id="paint2_linear_102_171" x1="14.1464" y1="15.9837" x2="15.8823" y2="14.248" gradientUnits="userSpaceOnUse">
<stop stop-color="#F6F5FA"/>
<stop offset="1" stop-color="#D7D8DB"/>
</linearGradient>
<linearGradient id="paint3_linear_102_171" x1="11.5206" y1="17.4931" x2="13.2296" y2="15.7843" gradientUnits="userSpaceOnUse">
<stop stop-color="#F6F5FA"/>
<stop offset="1" stop-color="#D7D8DB"/>
</linearGradient>
<linearGradient id="paint4_linear_102_171" x1="11.5144" y1="14.4542" x2="13.2402" y2="12.7287" gradientUnits="userSpaceOnUse">
<stop stop-color="#F6F5FA"/>
<stop offset="1" stop-color="#D7D8DB"/>
</linearGradient>
<linearGradient id="paint5_linear_102_171" x1="14.1521" y1="19.0229" x2="15.8694" y2="17.3058" gradientUnits="userSpaceOnUse">
<stop stop-color="#F6F5FA"/>
<stop offset="1" stop-color="#D7D8DB"/>
</linearGradient>
<linearGradient id="paint6_linear_102_171" x1="14.157" y1="12.9275" x2="15.8765" y2="11.2082" gradientUnits="userSpaceOnUse">
<stop stop-color="#F6F5FA"/>
<stop offset="1" stop-color="#D7D8DB"/>
</linearGradient>
<linearGradient id="paint7_linear_102_171" x1="16.787" y1="17.5055" x2="18.5127" y2="15.78" gradientUnits="userSpaceOnUse">
<stop stop-color="#F6F5FA"/>
<stop offset="1" stop-color="#D7D8DB"/>
</linearGradient>
<linearGradient id="paint8_linear_102_171" x1="16.7993" y1="14.4504" x2="18.5082" y2="12.7416" gradientUnits="userSpaceOnUse">
<stop stop-color="#F6F5FA"/>
<stop offset="0.6369" stop-color="#E4E4E8"/>
<stop offset="1" stop-color="#D7D8DB"/>
</linearGradient>
<linearGradient id="paint9_linear_102_171" x1="8.27467" y1="16.891" x2="9.92221" y2="15.2436" gradientUnits="userSpaceOnUse">
<stop stop-color="#F6F5FA"/>
<stop offset="0.5998" stop-color="#E0E0E4"/>
<stop offset="1" stop-color="#D7D8DB"/>
</linearGradient>
<linearGradient id="paint10_linear_102_171" x1="9.55625" y1="19.7096" x2="11.1786" y2="18.0875" gradientUnits="userSpaceOnUse">
<stop stop-color="#F6F5FA"/>
<stop offset="0.5998" stop-color="#E0E0E4"/>
<stop offset="1" stop-color="#D7D8DB"/>
</linearGradient>
<linearGradient id="paint11_linear_102_171" x1="8.57107" y1="13.8272" x2="10.2563" y2="12.1422" gradientUnits="userSpaceOnUse">
<stop stop-color="#F6F5FA"/>
<stop offset="1" stop-color="#D7D8DB"/>
</linearGradient>
<linearGradient id="paint12_linear_102_171" x1="12.0593" y1="21.5361" x2="13.6952" y2="19.9004" gradientUnits="userSpaceOnUse">
<stop stop-color="#F6F5FA"/>
<stop offset="0.5998" stop-color="#E0E0E4"/>
<stop offset="1" stop-color="#D7D8DB"/>
</linearGradient>
<linearGradient id="paint13_linear_102_171" x1="10.3796" y1="11.3193" x2="12.0765" y2="9.6225" gradientUnits="userSpaceOnUse">
<stop stop-color="#F6F5FA"/>
<stop offset="1" stop-color="#D7D8DB"/>
</linearGradient>
<linearGradient id="paint14_linear_102_171" x1="15.1204" y1="21.8764" x2="16.7951" y2="20.202" gradientUnits="userSpaceOnUse">
<stop stop-color="#F6F5FA"/>
<stop offset="1" stop-color="#D7D8DB"/>
</linearGradient>
<linearGradient id="paint15_linear_102_171" x1="13.2236" y1="10.0416" x2="14.9181" y2="8.34722" gradientUnits="userSpaceOnUse">
<stop stop-color="#F6F5FA"/>
<stop offset="0.6369" stop-color="#E4E4E8"/>
<stop offset="1" stop-color="#D7D8DB"/>
</linearGradient>
<linearGradient id="paint16_linear_102_171" x1="17.9381" y1="20.621" x2="19.6352" y2="18.9241" gradientUnits="userSpaceOnUse">
<stop stop-color="#F6F5FA"/>
<stop offset="1" stop-color="#D7D8DB"/>
</linearGradient>
<linearGradient id="paint17_linear_102_171" x1="16.3495" y1="10.3384" x2="17.9854" y2="8.70265" gradientUnits="userSpaceOnUse">
<stop stop-color="#F6F5FA"/>
<stop offset="0.6369" stop-color="#E4E4E8"/>
<stop offset="1" stop-color="#D7D8DB"/>
</linearGradient>
<linearGradient id="paint18_linear_102_171" x1="19.7651" y1="18.1066" x2="21.4519" y2="16.42" gradientUnits="userSpaceOnUse">
<stop stop-color="#F6F5FA"/>
<stop offset="0.6369" stop-color="#E4E4E8"/>
<stop offset="1" stop-color="#D7D8DB"/>
</linearGradient>
<linearGradient id="paint19_linear_102_171" x1="18.8611" y1="12.1574" x2="20.4833" y2="10.5354" gradientUnits="userSpaceOnUse">
<stop stop-color="#F6F5FA"/>
<stop offset="0.6369" stop-color="#E4E4E8"/>
<stop offset="1" stop-color="#D7D8DB"/>
</linearGradient>
<linearGradient id="paint20_linear_102_171" x1="20.1083" y1="15.0054" x2="21.7581" y2="13.3557" gradientUnits="userSpaceOnUse">
<stop stop-color="#F6F5FA"/>
<stop offset="0.6369" stop-color="#E4E4E8"/>
<stop offset="1" stop-color="#D7D8DB"/>
</linearGradient>
<linearGradient id="paint21_linear_102_171" x1="5.63922" y1="14.3782" x2="7.20709" y2="12.8105" gradientUnits="userSpaceOnUse">
<stop stop-color="#F1F1F2"/>
<stop offset="0.5444" stop-color="#E0E1E3"/>
<stop offset="1" stop-color="#D7D8DB"/>
</linearGradient>
<linearGradient id="paint22_linear_102_171" x1="5.67702" y1="17.3864" x2="7.18514" y2="15.8784" gradientUnits="userSpaceOnUse">
<stop stop-color="#F1F1F2"/>
<stop offset="0.5444" stop-color="#E0E1E3"/>
<stop offset="1" stop-color="#D7D8DB"/>
</linearGradient>
<linearGradient id="paint23_linear_102_171" x1="6.64369" y1="11.5701" x2="8.26511" y2="9.94882" gradientUnits="userSpaceOnUse">
<stop stop-color="#F6F5FA"/>
<stop offset="1" stop-color="#D7D8DB"/>
</linearGradient>
<linearGradient id="paint24_linear_102_171" x1="6.7452" y1="20.2438" x2="8.21636" y2="18.7728" gradientUnits="userSpaceOnUse">
<stop stop-color="#F1F1F2"/>
<stop offset="0.5444" stop-color="#E0E1E3"/>
<stop offset="1" stop-color="#D7D8DB"/>
</linearGradient>
<linearGradient id="paint25_linear_102_171" x1="8.57406" y1="9.26305" x2="10.2225" y2="7.6148" gradientUnits="userSpaceOnUse">
<stop stop-color="#F6F5FA"/>
<stop offset="1" stop-color="#D7D8DB"/>
</linearGradient>
<linearGradient id="paint26_linear_102_171" x1="8.71265" y1="22.5695" x2="10.1804" y2="21.1018" gradientUnits="userSpaceOnUse">
<stop stop-color="#F1F1F2"/>
<stop offset="0.5444" stop-color="#E0E1E3"/>
<stop offset="1" stop-color="#D7D8DB"/>
</linearGradient>
<linearGradient id="paint27_linear_102_171" x1="11.2272" y1="7.72553" x2="12.8451" y2="6.10772" gradientUnits="userSpaceOnUse">
<stop stop-color="#F6F5FA"/>
<stop offset="1" stop-color="#D7D8DB"/>
</linearGradient>
<linearGradient id="paint28_linear_102_171" x1="11.3373" y1="24.0958" x2="12.8304" y2="22.6029" gradientUnits="userSpaceOnUse">
<stop stop-color="#F1F1F2"/>
<stop offset="0.5444" stop-color="#E0E1E3"/>
<stop offset="1" stop-color="#D7D8DB"/>
</linearGradient>
<linearGradient id="paint29_linear_102_171" x1="14.2505" y1="7.16185" x2="15.8039" y2="5.60862" gradientUnits="userSpaceOnUse">
<stop stop-color="#F6F5FA"/>
<stop offset="0.6369" stop-color="#E4E4E8"/>
<stop offset="1" stop-color="#D7D8DB"/>
</linearGradient>
<linearGradient id="paint30_linear_102_171" x1="14.2967" y1="24.6394" x2="15.8539" y2="23.0824" gradientUnits="userSpaceOnUse">
<stop stop-color="#F1F1F2"/>
<stop offset="0.5444" stop-color="#E0E1E3"/>
<stop offset="1" stop-color="#D7D8DB"/>
</linearGradient>
<linearGradient id="paint31_linear_102_171" x1="17.1427" y1="7.61624" x2="18.6348" y2="6.12423" gradientUnits="userSpaceOnUse">
<stop stop-color="#F6F5FA"/>
<stop offset="0.3561" stop-color="#F2F1F6"/>
<stop offset="0.7245" stop-color="#E5E5E9"/>
<stop offset="1" stop-color="#D7D8DB"/>
</linearGradient>
<linearGradient id="paint32_linear_102_171" x1="17.2522" y1="24.1122" x2="18.8708" y2="22.4938" gradientUnits="userSpaceOnUse">
<stop stop-color="#F1F1F2"/>
<stop offset="0.5444" stop-color="#E0E1E3"/>
<stop offset="1" stop-color="#D7D8DB"/>
</linearGradient>
<linearGradient id="paint33_linear_102_171" x1="19.7994" y1="9.09142" x2="21.2669" y2="7.62413" gradientUnits="userSpaceOnUse">
<stop stop-color="#F6F5FA"/>
<stop offset="0.3561" stop-color="#F2F1F6"/>
<stop offset="0.7245" stop-color="#E5E5E9"/>
<stop offset="1" stop-color="#D7D8DB"/>
</linearGradient>
<linearGradient id="paint34_linear_102_171" x1="19.8541" y1="22.5765" x2="21.5023" y2="20.9284" gradientUnits="userSpaceOnUse">
<stop stop-color="#F6F5FA"/>
<stop offset="1" stop-color="#D7D8DB"/>
</linearGradient>
<linearGradient id="paint35_linear_102_171" x1="21.7794" y1="11.4018" x2="23.2502" y2="9.93116" gradientUnits="userSpaceOnUse">
<stop stop-color="#F6F5FA"/>
<stop offset="0.3561" stop-color="#F2F1F6"/>
<stop offset="0.7245" stop-color="#E5E5E9"/>
<stop offset="1" stop-color="#D7D8DB"/>
</linearGradient>
<linearGradient id="paint36_linear_102_171" x1="21.7945" y1="20.2251" x2="23.4286" y2="18.5911" gradientUnits="userSpaceOnUse">
<stop stop-color="#F6F5FA"/>
<stop offset="0.6369" stop-color="#E4E4E8"/>
<stop offset="1" stop-color="#D7D8DB"/>
</linearGradient>
<linearGradient id="paint37_linear_102_171" x1="22.8379" y1="14.2749" x2="24.3481" y2="12.7649" gradientUnits="userSpaceOnUse">
<stop stop-color="#F6F5FA"/>
<stop offset="0.3561" stop-color="#F2F1F6"/>
<stop offset="0.7245" stop-color="#E5E5E9"/>
<stop offset="1" stop-color="#D7D8DB"/>
</linearGradient>
<linearGradient id="paint38_linear_102_171" x1="22.8376" y1="17.3399" x2="24.4162" y2="15.7616" gradientUnits="userSpaceOnUse">
<stop stop-color="#F6F5FA"/>
<stop offset="0.3561" stop-color="#F2F1F6"/>
<stop offset="0.7245" stop-color="#E5E5E9"/>
<stop offset="1" stop-color="#D7D8DB"/>
</linearGradient>
<linearGradient id="paint39_linear_102_171" x1="3.5048" y1="13.3501" x2="4.96634" y2="11.8887" gradientUnits="userSpaceOnUse">
<stop stop-color="#E6E7E8"/>
<stop offset="0.3173" stop-color="#E0E1E3"/>
<stop offset="1" stop-color="#D7D8DB"/>
</linearGradient>
<linearGradient id="paint40_linear_102_171" x1="4.48345" y1="10.685" x2="6.00163" y2="9.16702" gradientUnits="userSpaceOnUse">
<stop stop-color="#F6F5FA"/>
<stop offset="1" stop-color="#D7D8DB"/>
</linearGradient>
<linearGradient id="paint41_linear_102_171" x1="3.27369" y1="16.2016" x2="4.65679" y2="14.8187" gradientUnits="userSpaceOnUse">
<stop stop-color="#E6E7E8"/>
<stop offset="0.3173" stop-color="#E0E1E3"/>
<stop offset="1" stop-color="#D7D8DB"/>
</linearGradient>
<linearGradient id="paint42_linear_102_171" x1="6.12339" y1="8.37626" x2="7.65776" y2="6.84205" gradientUnits="userSpaceOnUse">
<stop stop-color="#F6F5FA"/>
<stop offset="1" stop-color="#D7D8DB"/>
</linearGradient>
<linearGradient id="paint43_linear_102_171" x1="3.82375" y1="19.0695" x2="5.12653" y2="17.7668" gradientUnits="userSpaceOnUse">
<stop stop-color="#E6E7E8"/>
<stop offset="0.3173" stop-color="#E0E1E3"/>
<stop offset="1" stop-color="#D7D8DB"/>
</linearGradient>
<linearGradient id="paint44_linear_102_171" x1="8.30648" y1="6.55274" x2="9.8437" y2="5.0157" gradientUnits="userSpaceOnUse">
<stop stop-color="#F6F5FA"/>
<stop offset="0.6369" stop-color="#E4E4E8"/>
<stop offset="1" stop-color="#D7D8DB"/>
</linearGradient>
<linearGradient id="paint45_linear_102_171" x1="5.09195" y1="21.6935" x2="6.31075" y2="20.4749" gradientUnits="userSpaceOnUse">
<stop stop-color="#E6E7E8"/>
<stop offset="0.3173" stop-color="#E0E1E3"/>
<stop offset="1" stop-color="#D7D8DB"/>
</linearGradient>
<linearGradient id="paint46_linear_102_171" x1="10.9754" y1="5.31656" x2="12.4881" y2="3.80396" gradientUnits="userSpaceOnUse">
<stop stop-color="#F6F5FA"/>
<stop offset="0.6369" stop-color="#E4E4E8"/>
<stop offset="1" stop-color="#D7D8DB"/>
</linearGradient>
<linearGradient id="paint47_linear_102_171" x1="6.9188" y1="23.8481" x2="8.10552" y2="22.6615" gradientUnits="userSpaceOnUse">
<stop stop-color="#E6E7E8"/>
<stop offset="0.3173" stop-color="#E0E1E3"/>
<stop offset="1" stop-color="#D7D8DB"/>
</linearGradient>
<linearGradient id="paint48_linear_102_171" x1="13.8976" y1="4.75992" x2="15.3209" y2="3.33682" gradientUnits="userSpaceOnUse">
<stop stop-color="#F6F5FA"/>
<stop offset="0.3561" stop-color="#F2F1F6"/>
<stop offset="0.7245" stop-color="#E5E5E9"/>
<stop offset="1" stop-color="#D7D8DB"/>
</linearGradient>
<linearGradient id="paint49_linear_102_171" x1="9.25811" y1="25.5474" x2="10.498" y2="24.3076" gradientUnits="userSpaceOnUse">
<stop stop-color="#E6E7E8"/>
<stop offset="0.3173" stop-color="#E0E1E3"/>
<stop offset="1" stop-color="#D7D8DB"/>
</linearGradient>
<linearGradient id="paint50_linear_102_171" x1="16.8325" y1="4.98158" x2="18.1548" y2="3.65943" gradientUnits="userSpaceOnUse">
<stop stop-color="#F6F5FA"/>
<stop offset="0.3561" stop-color="#F2F1F6"/>
<stop offset="0.7245" stop-color="#E5E5E9"/>
<stop offset="1" stop-color="#D7D8DB"/>
</linearGradient>
<linearGradient id="paint51_linear_102_171" x1="11.9576" y1="26.6153" x2="13.2853" y2="25.2878" gradientUnits="userSpaceOnUse">
<stop stop-color="#E6E7E8"/>
<stop offset="0.3173" stop-color="#E0E1E3"/>
<stop offset="1" stop-color="#D7D8DB"/>
</linearGradient>
<linearGradient id="paint52_linear_102_171" x1="19.4558" y1="5.89499" x2="20.7012" y2="4.64975" gradientUnits="userSpaceOnUse">
<stop stop-color="#F6F5FA"/>
<stop offset="0.3561" stop-color="#F2F1F6"/>
<stop offset="0.7245" stop-color="#E5E5E9"/>
<stop offset="1" stop-color="#D7D8DB"/>
</linearGradient>
<linearGradient id="paint53_linear_102_171" x1="14.8092" y1="26.9247" x2="16.2396" y2="25.4944" gradientUnits="userSpaceOnUse">
<stop stop-color="#E6E7E8"/>
<stop offset="0.3173" stop-color="#E0E1E3"/>
<stop offset="1" stop-color="#D7D8DB"/>
</linearGradient>
<linearGradient id="paint54_linear_102_171" x1="21.8423" y1="7.50279" x2="23.027" y2="6.31827" gradientUnits="userSpaceOnUse">
<stop stop-color="#F6F5FA"/>
<stop offset="0.3698" stop-color="#F2F2F6"/>
<stop offset="0.7072" stop-color="#E7E7EB"/>
<stop offset="1" stop-color="#D7D8DB"/>
</linearGradient>
<linearGradient id="paint55_linear_102_171" x1="17.6403" y1="26.4236" x2="19.1548" y2="24.9092" gradientUnits="userSpaceOnUse">
<stop stop-color="#E6E7E8"/>
<stop offset="0.3173" stop-color="#E0E1E3"/>
<stop offset="1" stop-color="#D7D8DB"/>
</linearGradient>
<linearGradient id="paint56_linear_102_171" x1="23.6709" y1="9.67988" x2="24.8826" y2="8.46833" gradientUnits="userSpaceOnUse">
<stop stop-color="#F6F5FA"/>
<stop offset="0.4208" stop-color="#F3F2F7"/>
<stop offset="0.706" stop-color="#EAEAEE"/>
<stop offset="0.9503" stop-color="#DBDCDF"/>
<stop offset="1" stop-color="#D7D8DB"/>
</linearGradient>
<linearGradient id="paint57_linear_102_171" x1="20.2556" y1="25.1743" x2="21.7931" y2="23.637" gradientUnits="userSpaceOnUse">
<stop stop-color="#E6E7E8"/>
<stop offset="0.3173" stop-color="#E0E1E3"/>
<stop offset="1" stop-color="#D7D8DB"/>
</linearGradient>
<linearGradient id="paint58_linear_102_171" x1="24.8891" y1="12.362" x2="26.1818" y2="11.0694" gradientUnits="userSpaceOnUse">
<stop stop-color="#F6F5FA"/>
<stop offset="0.3777" stop-color="#F3F2F7"/>
<stop offset="0.7034" stop-color="#E8E8EC"/>
<stop offset="1" stop-color="#D7D8DB"/>
</linearGradient>
<linearGradient id="paint59_linear_102_171" x1="22.4249" y1="23.3312" x2="23.9549" y2="21.8013" gradientUnits="userSpaceOnUse">
<stop stop-color="#E6E7E8"/>
<stop offset="0.3173" stop-color="#E0E1E3"/>
<stop offset="1" stop-color="#D7D8DB"/>
</linearGradient>
<linearGradient id="paint60_linear_102_171" x1="25.3913" y1="15.2828" x2="26.7713" y2="13.9029" gradientUnits="userSpaceOnUse">
<stop stop-color="#F6F5FA"/>
<stop offset="0.3561" stop-color="#F2F1F6"/>
<stop offset="0.7245" stop-color="#E5E5E9"/>
<stop offset="1" stop-color="#D7D8DB"/>
</linearGradient>
<linearGradient id="paint61_linear_102_171" x1="24.0622" y1="20.9928" x2="25.606" y2="19.4492" gradientUnits="userSpaceOnUse">
<stop stop-color="#F6F5FA"/>
<stop offset="0.6369" stop-color="#E4E4E8"/>
<stop offset="1" stop-color="#D7D8DB"/>
</linearGradient>
<linearGradient id="paint62_linear_102_171" x1="25.0985" y1="18.2207" x2="26.5739" y2="16.7455" gradientUnits="userSpaceOnUse">
<stop stop-color="#F6F5FA"/>
<stop offset="0.3561" stop-color="#F2F1F6"/>
<stop offset="0.7245" stop-color="#E5E5E9"/>
<stop offset="1" stop-color="#D7D8DB"/>
</linearGradient>
<linearGradient id="paint63_linear_102_171" x1="1.5221" y1="16.9535" x2="2.71855" y2="15.7572" gradientUnits="userSpaceOnUse">
<stop stop-color="#D8D9DC"/>
<stop offset="0.0051" stop-color="#D8D9DC"/>
<stop offset="1" stop-color="#D0D2D3"/>
</linearGradient>
<linearGradient id="paint64_linear_102_171" x1="1.48404" y1="14.2523" x2="2.78205" y2="12.9545" gradientUnits="userSpaceOnUse">
<stop stop-color="#E6E7E8"/>
<stop offset="0.3173" stop-color="#E0E1E3"/>
<stop offset="1" stop-color="#D7D8DB"/>
</linearGradient>
<linearGradient id="paint65_linear_102_171" x1="2.18424" y1="19.6611" x2="3.27374" y2="18.5717" gradientUnits="userSpaceOnUse">
<stop stop-color="#D8D9DC"/>
<stop offset="0.0051" stop-color="#D8D9DC"/>
<stop offset="1" stop-color="#D0D2D3"/>
</linearGradient>
<linearGradient id="paint66_linear_102_171" x1="2.06642" y1="11.6616" x2="3.4443" y2="10.2838" gradientUnits="userSpaceOnUse">
<stop stop-color="#E6E7E8"/>
<stop offset="0.3173" stop-color="#E0E1E3"/>
<stop offset="1" stop-color="#D7D8DB"/>
</linearGradient>
<linearGradient id="paint67_linear_102_171" x1="3.36794" y1="22.0932" x2="4.31753" y2="21.1437" gradientUnits="userSpaceOnUse">
<stop stop-color="#D8D9DC"/>
<stop offset="0.0051" stop-color="#D8D9DC"/>
<stop offset="1" stop-color="#D0D2D3"/>
</linearGradient>
<linearGradient id="paint68_linear_102_171" x1="3.18948" y1="9.25411" x2="4.58884" y2="7.85489" gradientUnits="userSpaceOnUse">
<stop stop-color="#E6E7E8"/>
<stop offset="0.3173" stop-color="#E0E1E3"/>
<stop offset="1" stop-color="#D7D8DB"/>
</linearGradient>
<linearGradient id="paint69_linear_102_171" x1="4.85438" y1="24.1496" x2="5.78473" y2="23.2193" gradientUnits="userSpaceOnUse">
<stop stop-color="#D8D9DC"/>
<stop offset="0.0051" stop-color="#D8D9DC"/>
<stop offset="1" stop-color="#D0D2D3"/>
</linearGradient>
<linearGradient id="paint70_linear_102_171" x1="4.72143" y1="7.135" x2="6.13856" y2="5.71803" gradientUnits="userSpaceOnUse">
<stop stop-color="#F6F5FA"/>
<stop offset="1" stop-color="#D7D8DB"/>
</linearGradient>
<linearGradient id="paint71_linear_102_171" x1="6.77287" y1="25.9127" x2="7.71712" y2="24.9686" gradientUnits="userSpaceOnUse">
<stop stop-color="#D8D9DC"/>
<stop offset="0.0051" stop-color="#D8D9DC"/>
<stop offset="1" stop-color="#D0D2D3"/>
</linearGradient>
<linearGradient id="paint72_linear_102_171" x1="6.66655" y1="5.37987" x2="8.07563" y2="3.97095" gradientUnits="userSpaceOnUse">
<stop stop-color="#F6F5FA"/>
<stop offset="0.6369" stop-color="#E4E4E8"/>
<stop offset="1" stop-color="#D7D8DB"/>
</linearGradient>
<linearGradient id="paint73_linear_102_171" x1="9.11753" y1="27.3646" x2="10.1153" y2="26.367" gradientUnits="userSpaceOnUse">
<stop stop-color="#D8D9DC"/>
<stop offset="0.0051" stop-color="#D8D9DC"/>
<stop offset="1" stop-color="#D0D2D3"/>
</linearGradient>
<linearGradient id="paint74_linear_102_171" x1="8.97188" y1="4.05726" x2="10.4007" y2="2.62864" gradientUnits="userSpaceOnUse">
<stop stop-color="#F6F5FA"/>
<stop offset="0.4002" stop-color="#EDEDF1"/>
<stop offset="1" stop-color="#D7D8DB"/>
</linearGradient>
<linearGradient id="paint75_linear_102_171" x1="11.6799" y1="28.3818" x2="12.7998" y2="27.262" gradientUnits="userSpaceOnUse">
<stop stop-color="#D8D9DC"/>
<stop offset="0.0051" stop-color="#D8D9DC"/>
<stop offset="1" stop-color="#D0D2D3"/>
</linearGradient>
<linearGradient id="paint76_linear_102_171" x1="11.6397" y1="3.13689" x2="13.0184" y2="1.75835" gradientUnits="userSpaceOnUse">
<stop stop-color="#F6F5FA"/>
<stop offset="0.4002" stop-color="#EDEDF1"/>
<stop offset="1" stop-color="#D7D8DB"/>
</linearGradient>
<linearGradient id="paint77_linear_102_171" x1="14.3396" y1="28.7834" x2="15.5998" y2="27.5234" gradientUnits="userSpaceOnUse">
<stop stop-color="#D8D9DC"/>
<stop offset="0.0051" stop-color="#D8D9DC"/>
<stop offset="1" stop-color="#D0D2D3"/>
</linearGradient>
<linearGradient id="paint78_linear_102_171" x1="14.4503" y1="2.76977" x2="15.7406" y2="1.47957" gradientUnits="userSpaceOnUse">
<stop stop-color="#F6F5FA"/>
<stop offset="0.3498" stop-color="#F1F0F5"/>
<stop offset="0.7876" stop-color="#E1E2E5"/>
<stop offset="1" stop-color="#D7D8DB"/>
</linearGradient>
<linearGradient id="paint79_linear_102_171" x1="17.0166" y1="28.5174" x2="18.3958" y2="27.1383" gradientUnits="userSpaceOnUse">
<stop stop-color="#D8D9DC"/>
<stop offset="0.0051" stop-color="#D8D9DC"/>
<stop offset="1" stop-color="#D0D2D3"/>
</linearGradient>
<linearGradient id="paint80_linear_102_171" x1="17.2769" y1="3.00681" x2="18.3943" y2="1.88953" gradientUnits="userSpaceOnUse">
<stop stop-color="#F6F5FA"/>
<stop offset="0.569" stop-color="#F4F3F8"/>
<stop offset="0.774" stop-color="#EDEDF1"/>
<stop offset="0.9196" stop-color="#E2E2E6"/>
<stop offset="1" stop-color="#D7D8DB"/>
</linearGradient>
<linearGradient id="paint81_linear_102_171" x1="19.6058" y1="27.6228" x2="21.0402" y2="26.1886" gradientUnits="userSpaceOnUse">
<stop stop-color="#E6E7E8"/>
<stop offset="0.3173" stop-color="#E0E1E3"/>
<stop offset="1" stop-color="#D7D8DB"/>
</linearGradient>
<linearGradient id="paint82_linear_102_171" x1="19.9293" y1="3.87366" x2="20.9248" y2="2.87832" gradientUnits="userSpaceOnUse">
<stop stop-color="#F6F5FA"/>
<stop offset="0.569" stop-color="#F4F3F8"/>
<stop offset="0.774" stop-color="#EDEDF1"/>
<stop offset="0.9196" stop-color="#E2E2E6"/>
<stop offset="1" stop-color="#D7D8DB"/>
</linearGradient>
<linearGradient id="paint83_linear_102_171" x1="21.9356" y1="26.2609" x2="23.339" y2="24.8576" gradientUnits="userSpaceOnUse">
<stop stop-color="#E6E7E8"/>
<stop offset="0.3173" stop-color="#E0E1E3"/>
<stop offset="1" stop-color="#D7D8DB"/>
</linearGradient>
<linearGradient id="paint84_linear_102_171" x1="22.2624" y1="5.22168" x2="23.2249" y2="4.25929" gradientUnits="userSpaceOnUse">
<stop stop-color="#F6F5FA"/>
<stop offset="0.569" stop-color="#F4F3F8"/>
<stop offset="0.774" stop-color="#EDEDF1"/>
<stop offset="0.9196" stop-color="#E2E2E6"/>
<stop offset="1" stop-color="#D7D8DB"/>
</linearGradient>
<linearGradient id="paint85_linear_102_171" x1="23.8733" y1="24.5331" x2="25.2738" y2="23.1327" gradientUnits="userSpaceOnUse">
<stop stop-color="#E6E7E8"/>
<stop offset="0.3173" stop-color="#E0E1E3"/>
<stop offset="1" stop-color="#D7D8DB"/>
</linearGradient>
<linearGradient id="paint86_linear_102_171" x1="24.1867" y1="6.96173" x2="25.1682" y2="6.02183" gradientUnits="userSpaceOnUse">
<stop stop-color="#F6F5FA"/>
<stop offset="0.569" stop-color="#F4F3F8"/>
<stop offset="0.774" stop-color="#EDEDF1"/>
<stop offset="0.9196" stop-color="#E2E2E6"/>
<stop offset="1" stop-color="#D7D8DB"/>
</linearGradient>
<linearGradient id="paint87_linear_102_171" x1="25.4117" y1="22.4223" x2="26.8199" y2="21.0142" gradientUnits="userSpaceOnUse">
<stop stop-color="#F6F5FA"/>
<stop offset="0.6369" stop-color="#E4E4E8"/>
<stop offset="1" stop-color="#D7D8DB"/>
</linearGradient>
<linearGradient id="paint88_linear_102_171" x1="25.7048" y1="9.09944" x2="26.6704" y2="8.13393" gradientUnits="userSpaceOnUse">
<stop stop-color="#F6F5FA"/>
<stop offset="0.569" stop-color="#F4F3F8"/>
<stop offset="0.774" stop-color="#EDEDF1"/>
<stop offset="0.9196" stop-color="#E2E2E6"/>
<stop offset="1" stop-color="#D7D8DB"/>
</linearGradient>
<linearGradient id="paint89_linear_102_171" x1="26.5784" y1="19.9551" x2="27.997" y2="18.5368" gradientUnits="userSpaceOnUse">
<stop stop-color="#F6F5FA"/>
<stop offset="0.4002" stop-color="#EDEDF1"/>
<stop offset="1" stop-color="#D7D8DB"/>
</linearGradient>
<linearGradient id="paint90_linear_102_171" x1="26.7788" y1="11.6691" x2="27.8536" y2="10.5945" gradientUnits="userSpaceOnUse">
<stop stop-color="#F6F5FA"/>
<stop offset="0.569" stop-color="#F4F3F8"/>
<stop offset="0.774" stop-color="#EDEDF1"/>
<stop offset="0.9196" stop-color="#E2E2E6"/>
<stop offset="1" stop-color="#D7D8DB"/>
</linearGradient>
<linearGradient id="paint91_linear_102_171" x1="27.2783" y1="17.2332" x2="28.5869" y2="15.9248" gradientUnits="userSpaceOnUse">
<stop stop-color="#F6F5FA"/>
<stop offset="0.569" stop-color="#F4F3F8"/>
<stop offset="0.774" stop-color="#EDEDF1"/>
<stop offset="0.9196" stop-color="#E2E2E6"/>
<stop offset="1" stop-color="#D7D8DB"/>
</linearGradient>
<linearGradient id="paint92_linear_102_171" x1="27.3475" y1="14.4418" x2="28.5323" y2="13.257" gradientUnits="userSpaceOnUse">
<stop stop-color="#F6F5FA"/>
<stop offset="0.569" stop-color="#F4F3F8"/>
<stop offset="0.774" stop-color="#EDEDF1"/>
<stop offset="0.9196" stop-color="#E2E2E6"/>
<stop offset="1" stop-color="#D7D8DB"/>
</linearGradient>
<linearGradient id="paint93_linear_102_171" x1="0.122569" y1="13.8971" x2="1.29139" y2="12.7284" gradientUnits="userSpaceOnUse">
<stop stop-color="#D8D9DC"/>
<stop offset="0.0051" stop-color="#D8D9DC"/>
<stop offset="1" stop-color="#D0D2D3"/>
</linearGradient>
<linearGradient id="paint94_linear_102_171" x1="0.0879913" y1="16.3828" x2="1.13964" y2="15.3312" gradientUnits="userSpaceOnUse">
<stop stop-color="#D8D9DC"/>
<stop offset="0.0051" stop-color="#D8D9DC"/>
<stop offset="1" stop-color="#D0D2D3"/>
</linearGradient>
<linearGradient id="paint95_linear_102_171" x1="0.69076" y1="11.5245" x2="1.94912" y2="10.2663" gradientUnits="userSpaceOnUse">
<stop stop-color="#E6E7E8"/>
<stop offset="0.3173" stop-color="#E0E1E3"/>
<stop offset="1" stop-color="#D7D8DB"/>
</linearGradient>
<linearGradient id="paint96_linear_102_171" x1="0.610426" y1="18.9241" x2="1.52945" y2="18.0052" gradientUnits="userSpaceOnUse">
<stop stop-color="#D8D9DC"/>
<stop offset="0.0051" stop-color="#D8D9DC"/>
<stop offset="1" stop-color="#D0D2D3"/>
</linearGradient>
<linearGradient id="paint97_linear_102_171" x1="1.66038" y1="9.23723" x2="2.96367" y2="7.93408" gradientUnits="userSpaceOnUse">
<stop stop-color="#E6E7E8"/>
<stop offset="0.3173" stop-color="#E0E1E3"/>
<stop offset="1" stop-color="#D7D8DB"/>
</linearGradient>
<linearGradient id="paint98_linear_102_171" x1="1.59233" y1="21.3219" x2="2.34673" y2="20.5676" gradientUnits="userSpaceOnUse">
<stop stop-color="#D8D9DC"/>
<stop offset="0.0051" stop-color="#D8D9DC"/>
<stop offset="1" stop-color="#D0D2D3"/>
</linearGradient>
<linearGradient id="paint99_linear_102_171" x1="2.90475" y1="7.08681" x2="4.1769" y2="5.8148" gradientUnits="userSpaceOnUse">
<stop stop-color="#F6F5FA"/>
<stop offset="1" stop-color="#D7D8DB"/>
</linearGradient>
<linearGradient id="paint100_linear_102_171" x1="2.73276" y1="23.4256" x2="3.45188" y2="22.7065" gradientUnits="userSpaceOnUse">
<stop stop-color="#D8D9DC"/>
<stop offset="0.0051" stop-color="#D8D9DC"/>
<stop offset="1" stop-color="#D0D2D3"/>
</linearGradient>
<linearGradient id="paint101_linear_102_171" x1="4.42258" y1="5.2896" x2="5.67588" y2="4.03644" gradientUnits="userSpaceOnUse">
<stop stop-color="#F6F5FA"/>
<stop offset="0.6369" stop-color="#E4E4E8"/>
<stop offset="1" stop-color="#D7D8DB"/>
</linearGradient>
<linearGradient id="paint102_linear_102_171" x1="4.10486" y1="25.2273" x2="4.80613" y2="24.5261" gradientUnits="userSpaceOnUse">
<stop stop-color="#D8D9DC"/>
<stop offset="0.0051" stop-color="#D8D9DC"/>
<stop offset="1" stop-color="#D0D2D3"/>
</linearGradient>
<linearGradient id="paint103_linear_102_171" x1="6.28586" y1="3.87057" x2="7.56719" y2="2.58938" gradientUnits="userSpaceOnUse">
<stop stop-color="#F6F5FA"/>
<stop offset="0.4002" stop-color="#EDEDF1"/>
<stop offset="1" stop-color="#D7D8DB"/>
</linearGradient>
<linearGradient id="paint104_linear_102_171" x1="5.81257" y1="26.7514" x2="6.52925" y2="26.0348" gradientUnits="userSpaceOnUse">
<stop stop-color="#D8D9DC"/>
<stop offset="0.0051" stop-color="#D8D9DC"/>
<stop offset="1" stop-color="#D0D2D3"/>
</linearGradient>
<linearGradient id="paint105_linear_102_171" x1="8.48822" y1="2.72456" x2="9.78756" y2="1.42536" gradientUnits="userSpaceOnUse">
<stop stop-color="#F6F5FA"/>
<stop offset="0.4002" stop-color="#EDEDF1"/>
<stop offset="1" stop-color="#D7D8DB"/>
</linearGradient>
<linearGradient id="paint106_linear_102_171" x1="7.96334" y1="28.1095" x2="8.72852" y2="27.3444" gradientUnits="userSpaceOnUse">
<stop stop-color="#D8D9DC"/>
<stop offset="0.0051" stop-color="#D8D9DC"/>
<stop offset="1" stop-color="#D0D2D3"/>
</linearGradient>
<linearGradient id="paint107_linear_102_171" x1="10.9596" y1="1.82444" x2="12.2599" y2="0.52428" gradientUnits="userSpaceOnUse">
<stop stop-color="#F6F5FA"/>
<stop offset="0.4002" stop-color="#EDEDF1"/>
<stop offset="1" stop-color="#D7D8DB"/>
</linearGradient>
<linearGradient id="paint108_linear_102_171" x1="10.4247" y1="29.2611" x2="11.239" y2="28.447" gradientUnits="userSpaceOnUse">
<stop stop-color="#D8D9DC"/>
<stop offset="0.0051" stop-color="#D8D9DC"/>
<stop offset="1" stop-color="#D0D2D3"/>
</linearGradient>
<linearGradient id="paint109_linear_102_171" x1="13.5791" y1="1.2718" x2="14.7344" y2="0.116581" gradientUnits="userSpaceOnUse">
<stop stop-color="#F6F5FA"/>
<stop offset="0.4002" stop-color="#EDEDF1"/>
<stop offset="1" stop-color="#D7D8DB"/>
</linearGradient>
<linearGradient id="paint110_linear_102_171" x1="12.8393" y1="30.0148" x2="13.8329" y2="29.0214" gradientUnits="userSpaceOnUse">
<stop stop-color="#D8D9DC"/>
<stop offset="0.0051" stop-color="#D8D9DC"/>
<stop offset="1" stop-color="#D0D2D3"/>
</linearGradient>
<linearGradient id="paint111_linear_102_171" x1="16.2064" y1="1.2782" x2="17.2303" y2="0.254463" gradientUnits="userSpaceOnUse">
<stop stop-color="#F6F5FA"/>
<stop offset="0.569" stop-color="#F4F3F8"/>
<stop offset="0.774" stop-color="#EDEDF1"/>
<stop offset="0.9196" stop-color="#E2E2E6"/>
<stop offset="1" stop-color="#D7D8DB"/>
</linearGradient>
<linearGradient id="paint112_linear_102_171" x1="15.3074" y1="30.1813" x2="16.4689" y2="29.0199" gradientUnits="userSpaceOnUse">
<stop stop-color="#D8D9DC"/>
<stop offset="0.0051" stop-color="#D8D9DC"/>
<stop offset="1" stop-color="#D0D2D3"/>
</linearGradient>
<linearGradient id="paint113_linear_102_171" x1="18.8289" y1="1.82066" x2="19.6521" y2="0.997601" gradientUnits="userSpaceOnUse">
<stop stop-color="#F6F5FA"/>
<stop offset="0.569" stop-color="#F4F3F8"/>
<stop offset="0.774" stop-color="#EDEDF1"/>
<stop offset="0.9196" stop-color="#E2E2E6"/>
<stop offset="1" stop-color="#D7D8DB"/>
</linearGradient>
<linearGradient id="paint114_linear_102_171" x1="17.7731" y1="29.7527" x2="19.0697" y2="28.4562" gradientUnits="userSpaceOnUse">
<stop stop-color="#D8D9DC"/>
<stop offset="0.0051" stop-color="#D8D9DC"/>
<stop offset="1" stop-color="#D0D2D3"/>
</linearGradient>
<linearGradient id="paint115_linear_102_171" x1="21.2469" y1="2.82863" x2="22.0269" y2="2.0488" gradientUnits="userSpaceOnUse">
<stop stop-color="#F6F5FA"/>
<stop offset="0.569" stop-color="#F4F3F8"/>
<stop offset="0.774" stop-color="#EDEDF1"/>
<stop offset="0.9196" stop-color="#E2E2E6"/>
<stop offset="1" stop-color="#D7D8DB"/>
</linearGradient>
<linearGradient id="paint116_linear_102_171" x1="20.2001" y1="28.8206" x2="21.5346" y2="27.4863" gradientUnits="userSpaceOnUse">
<stop stop-color="#D8D9DC"/>
<stop offset="0.0051" stop-color="#D8D9DC"/>
<stop offset="1" stop-color="#D0D2D3"/>
</linearGradient>
<linearGradient id="paint117_linear_102_171" x1="23.3978" y1="4.05537" x2="24.1754" y2="3.27781" gradientUnits="userSpaceOnUse">
<stop stop-color="#F6F5FA"/>
<stop offset="0.569" stop-color="#F4F3F8"/>
<stop offset="0.774" stop-color="#EDEDF1"/>
<stop offset="0.9196" stop-color="#E2E2E6"/>
<stop offset="1" stop-color="#D7D8DB"/>
</linearGradient>
<linearGradient id="paint118_linear_102_171" x1="22.4572" y1="27.6126" x2="23.7296" y2="26.3404" gradientUnits="userSpaceOnUse">
<stop stop-color="#D8D9DC"/>
<stop offset="0.0051" stop-color="#D8D9DC"/>
<stop offset="1" stop-color="#D0D2D3"/>
</linearGradient>
<linearGradient id="paint119_linear_102_171" x1="25.1588" y1="5.55935" x2="25.9319" y2="4.78636" gradientUnits="userSpaceOnUse">
<stop stop-color="#F6F5FA"/>
<stop offset="0.569" stop-color="#F4F3F8"/>
<stop offset="0.774" stop-color="#EDEDF1"/>
<stop offset="0.9196" stop-color="#E2E2E6"/>
<stop offset="1" stop-color="#D7D8DB"/>
</linearGradient>
<linearGradient id="paint120_linear_102_171" x1="24.3436" y1="26.1922" x2="25.5676" y2="24.9683" gradientUnits="userSpaceOnUse">
<stop stop-color="#E6E7E8"/>
<stop offset="0.3173" stop-color="#E0E1E3"/>
<stop offset="1" stop-color="#D7D8DB"/>
</linearGradient>
<linearGradient id="paint121_linear_102_171" x1="26.545" y1="7.45644" x2="27.3268" y2="6.67474" gradientUnits="userSpaceOnUse">
<stop stop-color="#F6F5FA"/>
<stop offset="0.569" stop-color="#F4F3F8"/>
<stop offset="0.774" stop-color="#EDEDF1"/>
<stop offset="0.9196" stop-color="#E2E2E6"/>
<stop offset="1" stop-color="#D7D8DB"/>
</linearGradient>
<linearGradient id="paint122_linear_102_171" x1="25.8181" y1="24.4666" x2="27.07" y2="23.2149" gradientUnits="userSpaceOnUse">
<stop stop-color="#E6E7E8"/>
<stop offset="0.3173" stop-color="#E0E1E3"/>
<stop offset="1" stop-color="#D7D8DB"/>
</linearGradient>
<linearGradient id="paint123_linear_102_171" x1="27.6795" y1="9.68557" x2="28.4595" y2="8.90568" gradientUnits="userSpaceOnUse">
<stop stop-color="#F6F5FA"/>
<stop offset="0.569" stop-color="#F4F3F8"/>
<stop offset="0.774" stop-color="#EDEDF1"/>
<stop offset="0.9196" stop-color="#E2E2E6"/>
<stop offset="1" stop-color="#D7D8DB"/>
</linearGradient>
<linearGradient id="paint124_linear_102_171" x1="27.0186" y1="22.375" x2="28.3399" y2="21.0538" gradientUnits="userSpaceOnUse">
<stop stop-color="#E6E7E8"/>
<stop offset="0.3173" stop-color="#E0E1E3"/>
<stop offset="1" stop-color="#D7D8DB"/>
</linearGradient>
<linearGradient id="paint125_linear_102_171" x1="28.5347" y1="12.2221" x2="29.4292" y2="11.3277" gradientUnits="userSpaceOnUse">
<stop stop-color="#F6F5FA"/>
<stop offset="0.569" stop-color="#F4F3F8"/>
<stop offset="0.774" stop-color="#EDEDF1"/>
<stop offset="0.9196" stop-color="#E2E2E6"/>
<stop offset="1" stop-color="#D7D8DB"/>
</linearGradient>
<linearGradient id="paint126_linear_102_171" x1="28.0608" y1="19.9885" x2="29.3825" y2="18.667" gradientUnits="userSpaceOnUse">
<stop stop-color="#F6F5FA"/>
<stop offset="0.4002" stop-color="#EDEDF1"/>
<stop offset="1" stop-color="#D7D8DB"/>
</linearGradient>
<linearGradient id="paint127_linear_102_171" x1="28.9429" y1="14.8406" x2="29.9761" y2="13.8074" gradientUnits="userSpaceOnUse">
<stop stop-color="#F6F5FA"/>
<stop offset="0.569" stop-color="#F4F3F8"/>
<stop offset="0.774" stop-color="#EDEDF1"/>
<stop offset="0.9196" stop-color="#E2E2E6"/>
<stop offset="1" stop-color="#D7D8DB"/>
</linearGradient>
<linearGradient id="paint128_linear_102_171" x1="28.7807" y1="17.4388" x2="29.9641" y2="16.2555" gradientUnits="userSpaceOnUse">
<stop stop-color="#F6F5FA"/>
<stop offset="0.569" stop-color="#F4F3F8"/>
<stop offset="0.774" stop-color="#EDEDF1"/>
<stop offset="0.9196" stop-color="#E2E2E6"/>
<stop offset="1" stop-color="#D7D8DB"/>
</linearGradient>
</defs>
</svg>
