<svg width="64" height="64" viewBox="0 0 64 64" fill="none" xmlns="http://www.w3.org/2000/svg">
<path d="M60.16 32.6666C60.16 30.5866 59.9733 28.5866 59.6267 26.6666H32V38.0266H47.7867C47.0933 41.68 45.0133 44.7733 41.8933 46.8533V54.24H51.4133C56.96 49.12 60.16 41.6 60.16 32.6666Z" fill="#4285F4"/>
<path d="M32 61.3333C39.92 61.3333 46.56 58.72 51.4133 54.24L41.8933 46.8533C39.28 48.6133 35.9467 49.68 32 49.68C24.3733 49.68 17.8933 44.5333 15.5733 37.6H5.81333V45.1733C10.64 54.7466 20.5333 61.3333 32 61.3333Z" fill="#34A853"/>
<path d="M15.5733 37.5733C14.9867 35.8133 14.64 33.9467 14.64 32C14.64 30.0533 14.9867 28.1867 15.5733 26.4267V18.8533H5.81333C3.81333 22.8 2.66667 27.2533 2.66667 32C2.66667 36.7467 3.81333 41.2 5.81333 45.1467L13.4133 39.2267L15.5733 37.5733Z" fill="#FBBC05"/>
<path d="M32 14.3467C36.32 14.3467 40.16 15.84 43.2267 18.72L51.6267 10.32C46.5333 5.57335 39.92 2.66669 32 2.66669C20.5333 2.66669 10.64 9.25335 5.81333 18.8534L15.5733 26.4267C17.8933 19.4934 24.3733 14.3467 32 14.3467Z" fill="#EA4335"/>
</svg>
