<svg width="33" height="32" viewBox="0 0 33 32" fill="none" xmlns="http://www.w3.org/2000/svg">
<path fill-rule="evenodd" clip-rule="evenodd" d="M32.2002 16C32.2002 16.4698 31.9733 16.9106 31.591 17.1836L11.2275 31.7292C10.7841 32.0457 10.2009 32.0881 9.71644 31.8388C9.23196 31.5895 8.92747 31.0903 8.92747 30.5455V23.2727H1.65474C0.851424 23.2727 0.200195 22.6215 0.200195 21.8182V10.1818C0.200195 9.3785 0.851424 8.72727 1.65474 8.72727H8.92747V1.45454C8.92747 0.9097 9.23196 0.410528 9.71644 0.161219C10.2009 -0.0880898 10.7841 -0.045762 11.2275 0.270922L31.591 14.8164C31.9733 15.0894 32.2002 15.5303 32.2002 16Z" fill="white"/>
</svg>
