<svg width="32" height="32" viewBox="0 0 32 32" fill="none" xmlns="http://www.w3.org/2000/svg">
<path fill-rule="evenodd" clip-rule="evenodd" d="M2.52842 15.196C2.52842 22.5802 7.8823 27.6102 13.8943 28.6513C14.5823 28.7704 15.0434 29.4246 14.9243 30.1128C14.8052 30.8007 14.1509 31.2618 13.4629 31.1427C6.40025 29.9197 0 23.9669 0 15.196C-2.42564e-06 11.4686 1.69582 8.53928 3.67618 6.3109C5.09482 4.71461 6.71782 3.41852 8.02311 2.42564H4.05376C3.38394 2.42564 2.84094 1.88263 2.84094 1.21282C2.84094 0.543003 3.38394 0 4.05376 0H11.3307C12.0005 0 12.5435 0.543003 12.5435 1.21282V8.48973C12.5435 9.15954 12.0005 9.70254 11.3307 9.70254C10.6609 9.70254 10.1179 9.15954 10.1179 8.48973V4.01304L10.1142 4.01581C8.72802 5.06128 7.03376 6.33906 5.56612 7.99048C3.83295 9.94072 2.52842 12.2968 2.52842 15.196ZM29.4717 16.1819C29.4717 8.87572 24.2314 3.87515 18.2966 2.76103C17.6104 2.6322 17.1585 1.97148 17.2874 1.28525C17.4162 0.599035 18.0769 0.147188 18.7631 0.276013C25.735 1.58489 32 7.50499 32 16.1819C32 19.9093 30.3042 22.8385 28.3239 25.067C26.9051 26.6633 25.2821 27.9593 23.9769 28.9523H27.9465C28.6162 28.9523 29.1593 29.4952 29.1593 30.1652C29.1593 30.8349 28.6162 31.378 27.9465 31.378H20.6694C19.9996 31.378 19.4566 30.8349 19.4566 30.1652V22.8883C19.4566 22.2183 19.9996 21.6753 20.6694 21.6753C21.3392 21.6753 21.8822 22.2183 21.8822 22.8883V27.3648L21.886 27.3619C23.2723 26.3164 24.9663 25.0388 26.4338 23.3874C28.1672 21.4371 29.4717 19.0811 29.4717 16.1819Z" fill="white"/>
</svg>
