<svg width="30" height="30" viewBox="0 0 30 30" fill="none" xmlns="http://www.w3.org/2000/svg">
<g filter="url(#filter0_d_81_636)">
<path d="M24.8889 0H3.11111C1.39222 0 0 1.39222 0 3.11111V24.8889C0 26.6078 1.39222 28 3.11111 28H24.8889C26.6078 28 28 26.6078 28 24.8889V3.11111C28 1.39222 26.6078 0 24.8889 0ZM24.8889 24.8889H3.11111V3.11111H24.8889V24.8889ZM9.33333 21.7778H6.22222V14H9.33333V21.7778ZM15.5556 21.7778H12.4444V6.22222H15.5556V21.7778ZM21.7778 21.7778H18.6667V10.8889H21.7778V21.7778Z" fill="white"/>
</g>
<defs>
<filter id="filter0_d_81_636" x="0" y="0" width="29.1667" height="29.1667" filterUnits="userSpaceOnUse" color-interpolation-filters="sRGB">
<feFlood flood-opacity="0" result="BackgroundImageFix"/>
<feColorMatrix in="SourceAlpha" type="matrix" values="0 0 0 0 0 0 0 0 0 0 0 0 0 0 0 0 0 0 127 0" result="hardAlpha"/>
<feOffset dx="1.16667" dy="1.16667"/>
<feComposite in2="hardAlpha" operator="out"/>
<feColorMatrix type="matrix" values="0 0 0 0 0 0 0 0 0 0 0 0 0 0 0 0 0 0 0.5 0"/>
<feBlend mode="normal" in2="BackgroundImageFix" result="effect1_dropShadow_81_636"/>
<feBlend mode="normal" in="SourceGraphic" in2="effect1_dropShadow_81_636" result="shape"/>
</filter>
</defs>
</svg>
