{
	"asset":{
		"generator":"Khronos glTF Blender I/O v3.6.27",
		"version":"2.0"
	},
	"extensionsUsed":[
		"KHR_materials_specular",
		"KHR_materials_ior"
	],
	"scene":0,
	"scenes":[
		{
			"name":"Scene",
			"nodes":[
				0,
				1,
				2,
				3,
				4
			]
		}
	],
	"nodes":[
		{
			"mesh":0,
			"name":"Hole"
		},
		{
			"mesh":1,
			"name":"Ground",
			"translation":[
				0,
				2.520893096923828,
				0
			]
		},
		{
			"mesh":2,
			"name":"Pole"
		},
		{
			"mesh":3,
			"name":"Ball",
			"translation":[
				2.5,
				3,
				-0.75
			]
		},
		{
			"mesh":4,
			"name":"Flag",
			"translation":[
				0.09722718596458435,
				22.670454025268555,
				-0.09722718596458435
			]
		}
	],
	"materials":[
		{
			"doubleSided":true,
			"name":"Hole",
			"pbrMetallicRoughness":{
				"baseColorFactor":[
					0,
					0.02500000037252903,
					0,
					1
				],
				"metallicFactor":0,
				"roughnessFactor":0.5
			}
		},
		{
			"doubleSided":true,
			"extensions":{
				"KHR_materials_specular":{
					"specularColorFactor":[
						0,
						0,
						0
					]
				},
				"KHR_materials_ior":{
					"ior":1.4500000476837158
				}
			},
			"name":"Field",
			"pbrMetallicRoughness":{
				"baseColorTexture":{
					"index":0
				},
				"metallicFactor":0
			}
		},
		{
			"doubleSided":true,
			"name":"PoleStripRed",
			"pbrMetallicRoughness":{
				"baseColorFactor":[
					0.6618631482124329,
					0.022108837962150574,
					0,
					1
				],
				"metallicFactor":0,
				"roughnessFactor":0.5
			}
		},
		{
			"doubleSided":true,
			"name":"PoleStripWhite",
			"pbrMetallicRoughness":{
				"metallicFactor":0,
				"roughnessFactor":0.5
			}
		},
		{
			"doubleSided":true,
			"extensions":{
				"KHR_materials_specular":{
					"specularColorFactor":[
						2.371357614441398,
						2.371357614441398,
						2.371357614441398
					]
				},
				"KHR_materials_ior":{
					"ior":1.4500000476837158
				}
			},
			"name":"Ball",
			"pbrMetallicRoughness":{
				"baseColorFactor":[
					0.4025163948535919,
					0.5323172211647034,
					0.5814632773399353,
					1
				],
				"metallicFactor":0,
				"roughnessFactor":0.5
			}
		},
		{
			"doubleSided":true,
			"name":"Flag",
			"pbrMetallicRoughness":{
				"baseColorFactor":[
					0.8000000715255737,
					0.053911011666059494,
					0.004825159441679716,
					1
				],
				"metallicFactor":0,
				"roughnessFactor":0.5
			}
		}
	],
	"meshes":[
		{
			"name":"Circle",
			"primitives":[
				{
					"attributes":{
						"POSITION":0,
						"NORMAL":1,
						"TEXCOORD_0":2
					},
					"indices":3,
					"material":0
				}
			]
		},
		{
			"name":"Plane",
			"primitives":[
				{
					"attributes":{
						"POSITION":4,
						"NORMAL":5,
						"TEXCOORD_0":6
					},
					"indices":7,
					"material":1
				}
			]
		},
		{
			"name":"Circle.001",
			"primitives":[
				{
					"attributes":{
						"POSITION":8,
						"NORMAL":9,
						"TEXCOORD_0":10
					},
					"indices":11,
					"material":2
				},
				{
					"attributes":{
						"POSITION":12,
						"NORMAL":13,
						"TEXCOORD_0":14
					},
					"indices":15,
					"material":3
				}
			]
		},
		{
			"name":"Icosphere.001",
			"primitives":[
				{
					"attributes":{
						"POSITION":16,
						"NORMAL":17,
						"TEXCOORD_0":18
					},
					"indices":19,
					"material":4
				}
			]
		},
		{
			"name":"Plane.001",
			"primitives":[
				{
					"attributes":{
						"POSITION":20,
						"NORMAL":21,
						"TEXCOORD_0":22
					},
					"indices":23,
					"material":5
				}
			]
		}
	],
	"textures":[
		{
			"sampler":0,
			"source":0
		}
	],
	"images":[
		{
			"mimeType":"image/png",
			"name":"GroundColor",
			"uri":"GroundColor.png"
		}
	],
	"accessors":[
		{
			"bufferView":0,
			"componentType":5126,
			"count":610,
			"max":[
				1.22287118434906,
				2.5250003337860107,
				1.22287118434906
			],
			"min":[
				-1.22287118434906,
				-0.033285949379205704,
				-1.22287118434906
			],
			"type":"VEC3"
		},
		{
			"bufferView":1,
			"componentType":5126,
			"count":610,
			"type":"VEC3"
		},
		{
			"bufferView":2,
			"componentType":5126,
			"count":610,
			"type":"VEC2"
		},
		{
			"bufferView":3,
			"componentType":5123,
			"count":2496,
			"type":"SCALAR"
		},
		{
			"bufferView":4,
			"componentType":5126,
			"count":40,
			"max":[
				100,
				2.019355861193617e-06,
				100
			],
			"min":[
				-100,
				0,
				-100
			],
			"type":"VEC3"
		},
		{
			"bufferView":5,
			"componentType":5126,
			"count":40,
			"type":"VEC3"
		},
		{
			"bufferView":6,
			"componentType":5126,
			"count":40,
			"type":"VEC2"
		},
		{
			"bufferView":7,
			"componentType":5123,
			"count":144,
			"type":"SCALAR"
		},
		{
			"bufferView":8,
			"componentType":5126,
			"count":273,
			"max":[
				0.171875,
				24.100000381469727,
				0.171875
			],
			"min":[
				-0.171875,
				2.159090995788574,
				-0.171875
			],
			"type":"VEC3"
		},
		{
			"bufferView":9,
			"componentType":5126,
			"count":273,
			"type":"VEC3"
		},
		{
			"bufferView":10,
			"componentType":5126,
			"count":273,
			"type":"VEC2"
		},
		{
			"bufferView":11,
			"componentType":5123,
			"count":912,
			"type":"SCALAR"
		},
		{
			"bufferView":12,
			"componentType":5126,
			"count":192,
			"max":[
				0.13750000298023224,
				23.75,
				0.13750000298023224
			],
			"min":[
				-0.13750000298023224,
				0,
				-0.13750000298023224
			],
			"type":"VEC3"
		},
		{
			"bufferView":13,
			"componentType":5126,
			"count":192,
			"type":"VEC3"
		},
		{
			"bufferView":14,
			"componentType":5126,
			"count":192,
			"type":"VEC2"
		},
		{
			"bufferView":15,
			"componentType":5123,
			"count":576,
			"type":"SCALAR"
		},
		{
			"bufferView":16,
			"componentType":5126,
			"count":960,
			"max":[
				0.5,
				0.5,
				0.4999999701976776
			],
			"min":[
				-0.4999999701976776,
				-0.5,
				-0.4999999701976776
			],
			"type":"VEC3"
		},
		{
			"bufferView":17,
			"componentType":5126,
			"count":960,
			"type":"VEC3"
		},
		{
			"bufferView":18,
			"componentType":5126,
			"count":960,
			"type":"VEC2"
		},
		{
			"bufferView":19,
			"componentType":5123,
			"count":960,
			"type":"SCALAR"
		},
		{
			"bufferView":20,
			"componentType":5126,
			"count":18,
			"max":[
				3.5000851154327393,
				1,
				0.007071098778396845
			],
			"min":[
				-3.05368992314925e-08,
				-1,
				-3.493014097213745
			],
			"type":"VEC3"
		},
		{
			"bufferView":21,
			"componentType":5126,
			"count":18,
			"type":"VEC3"
		},
		{
			"bufferView":22,
			"componentType":5126,
			"count":18,
			"type":"VEC2"
		},
		{
			"bufferView":23,
			"componentType":5123,
			"count":24,
			"type":"SCALAR"
		}
	],
	"bufferViews":[
		{
			"buffer":0,
			"byteLength":7320,
			"byteOffset":0,
			"target":34962
		},
		{
			"buffer":0,
			"byteLength":7320,
			"byteOffset":7320,
			"target":34962
		},
		{
			"buffer":0,
			"byteLength":4880,
			"byteOffset":14640,
			"target":34962
		},
		{
			"buffer":0,
			"byteLength":4992,
			"byteOffset":19520,
			"target":34963
		},
		{
			"buffer":0,
			"byteLength":480,
			"byteOffset":24512,
			"target":34962
		},
		{
			"buffer":0,
			"byteLength":480,
			"byteOffset":24992,
			"target":34962
		},
		{
			"buffer":0,
			"byteLength":320,
			"byteOffset":25472,
			"target":34962
		},
		{
			"buffer":0,
			"byteLength":288,
			"byteOffset":25792,
			"target":34963
		},
		{
			"buffer":0,
			"byteLength":3276,
			"byteOffset":26080,
			"target":34962
		},
		{
			"buffer":0,
			"byteLength":3276,
			"byteOffset":29356,
			"target":34962
		},
		{
			"buffer":0,
			"byteLength":2184,
			"byteOffset":32632,
			"target":34962
		},
		{
			"buffer":0,
			"byteLength":1824,
			"byteOffset":34816,
			"target":34963
		},
		{
			"buffer":0,
			"byteLength":2304,
			"byteOffset":36640,
			"target":34962
		},
		{
			"buffer":0,
			"byteLength":2304,
			"byteOffset":38944,
			"target":34962
		},
		{
			"buffer":0,
			"byteLength":1536,
			"byteOffset":41248,
			"target":34962
		},
		{
			"buffer":0,
			"byteLength":1152,
			"byteOffset":42784,
			"target":34963
		},
		{
			"buffer":0,
			"byteLength":11520,
			"byteOffset":43936,
			"target":34962
		},
		{
			"buffer":0,
			"byteLength":11520,
			"byteOffset":55456,
			"target":34962
		},
		{
			"buffer":0,
			"byteLength":7680,
			"byteOffset":66976,
			"target":34962
		},
		{
			"buffer":0,
			"byteLength":1920,
			"byteOffset":74656,
			"target":34963
		},
		{
			"buffer":0,
			"byteLength":216,
			"byteOffset":76576,
			"target":34962
		},
		{
			"buffer":0,
			"byteLength":216,
			"byteOffset":76792,
			"target":34962
		},
		{
			"buffer":0,
			"byteLength":144,
			"byteOffset":77008,
			"target":34962
		},
		{
			"buffer":0,
			"byteLength":48,
			"byteOffset":77152,
			"target":34963
		}
	],
	"samplers":[
		{
			"magFilter":9729,
			"minFilter":9987
		}
	],
	"buffers":[
		{
			"byteLength":77200,
			"uri":"MainMenuScreen.bin"
		}
	]
}
