<?xml version="1.0" encoding="iso-8859-1"?>
<!-- Uploaded to: SVG Repo, www.svgrepo.com, Generator: SVG Repo Mixer Tools -->
<svg height="800px" width="800px" version="1.1" id="Layer_1" xmlns="http://www.w3.org/2000/svg" xmlns:xlink="http://www.w3.org/1999/xlink" 
	 viewBox="0 0 508 508" xml:space="preserve">
<circle style="fill:#324A5E;" cx="254" cy="254" r="254"/>
<path style="fill:#F9B54C;" d="M62,252.4v54.8c0,1.6,1.2,3.6,3.6,4.8v-54.8C63.2,256,62,254,62,252.4z"/>
<polygon style="fill:#897031;" points="377.6,200.8 377.6,255.6 298,210 298,154.8 "/>
<polygon style="fill:#C5A046;" points="298,154.8 298,210 130.4,307.2 130.4,252.4 "/>
<g>
	<path style="fill:#F9B54C;" d="M446,200.8C446,201.2,446,201.2,446,200.8c0,0.4,0,0.4,0,0.8v0.4c0,0,0,0,0,0.4v0.4c0,0,0,0,0,0.4
		c0,0,0,0.4-0.4,0.4c0,0,0,0,0,0.4l-0.4,0.4l0,0c0,0-0.4,0-0.4,0.4c0,0-0.4,0-0.4,0.4c0,0-0.4,0-0.4,0.4c0,0-0.4,0-0.4,0.4v54.8l0,0
		c0,0,0.4,0,0.4-0.4c0,0,0.4,0,0.4-0.4c0,0,0.4,0,0.4-0.4c0,0,0.4,0,0.4-0.4l0,0l0,0l0.4-0.4l0,0l0,0c0,0,0-0.4,0.4-0.4l0,0l0,0V258
		c0,0,0,0,0-0.4l0,0v-0.4c0,0,0,0,0-0.4l0,0v-0.4c0,0,0,0,0-0.4l0,0V200.8L446,200.8z"/>
	<path style="fill:#F9B54C;" d="M298,154.8l79.6,46L210,298l-79.6-45.6L298,154.8z M238.4,235.6c8.8,5.2,23.2,5.2,32,0
		s8.8-13.2,0-18.4s-23.2-5.2-32,0C229.2,222.4,229.2,230.8,238.4,235.6 M288.4,206.4c8.8,5.2,23.2,5.2,32,0s8.8-13.2,0-18.4
		s-23.2-5.2-32,0S279.6,201.2,288.4,206.4 M188,265.2c8.8,5.2,23.2,5.2,32,0s8.8-13.2,0-18.4s-23.2-5.2-32,0
		C178.8,251.6,179.2,260,188,265.2"/>
</g>
<polygon style="fill:#C08C3B;" points="377.6,200.8 377.6,255.6 210,353.2 210,298 "/>
<polygon style="fill:#866129;" points="210,298 210,353.2 130.4,307.2 130.4,252.4 "/>
<g>
	<path style="fill:#FFD05B;" d="M442.8,195.6c4.8,2.8,4.8,7.2,0,9.6L218.4,336c-4.4,2.8-12,2.8-16.8,0l-136-78.4
		c-4.8-2.8-4.8-7.2,0-9.6L290,117.2c4.4-2.8,12-2.8,16.8,0L442.8,195.6z M210,298l167.6-97.2l-79.6-46l-167.6,97.6L210,298"/>
	<path style="fill:#FFD05B;" d="M320.4,188c8.8,5.2,8.8,13.2,0,18.4s-23.2,5.2-32,0s-8.8-13.2,0-18.4
		C297.2,182.8,311.6,182.8,320.4,188z"/>
	<path style="fill:#FFD05B;" d="M270,217.2c8.8,5.2,8.8,13.2,0,18.4s-23.2,5.2-32,0s-8.8-13.2,0-18.4
		C246.8,212.4,261.2,212.4,270,217.2z"/>
	<path style="fill:#FFD05B;" d="M219.6,246.4c8.8,5.2,8.8,13.2,0,18.4c-8.8,5.2-23.2,5.2-32,0s-8.8-13.2,0-18.4
		C196.4,241.6,210.8,241.6,219.6,246.4z"/>
</g>
<g>
	<polygon style="fill:#F9B54C;" points="218.4,336 218,390.8 442.4,260.4 442.8,205.6 	"/>
	<polygon style="fill:#F9B54C;" points="65.6,257.2 65.2,312.4 201.6,390.8 201.6,336 	"/>
	<path style="fill:#F9B54C;" d="M218,390.8V336c-0.4,0.4-1.2,0.4-1.6,0.8H216c-0.4,0-0.8,0.4-1.2,0.4s-0.8,0.4-1.2,0.4
		s-0.8,0-1.6,0.4h-0.4c-0.8,0-1.2,0-2,0h-0.4c-0.8,0-1.2,0-2,0c0,0,0,0-0.4,0c-0.8,0-1.2,0-2-0.4h-0.4c-0.4,0-1.2-0.4-1.6-0.4h-0.4
		c-0.8-0.4-1.2-0.4-1.6-0.8v54.8c0.4,0.4,1.2,0.4,1.6,0.8l0,0c0,0,0,0,0.4,0s0.8,0.4,1.2,0.4h0.4h0.4c0,0,0,0,0.4,0s0.8,0,1.2,0.4
		h0.4c0,0,0,0,0.4,0h0.4c0.4,0,0.8,0,1.2,0h0.4h0.4h0.4c0.4,0,0.8,0,1.2,0l0,0h0.4c0.4,0,0.8,0,1.2,0h0.4c0.4,0,0.8,0,1.2-0.4
		c0.4,0,0.4,0,0.8,0h0.4h0.4C217.2,391.2,217.6,391.2,218,390.8z"/>
</g>
</svg>