<svg width="464" height="464" viewBox="0 0 464 464" fill="none" xmlns="http://www.w3.org/2000/svg">
<path fill-rule="evenodd" clip-rule="evenodd" d="M289.019 84.1987L262.85 34.3647C252.794 32.8078 242.492 32 232 32C221.661 32 211.504 32.7846 201.588 34.2975L175.383 84.1988C159.808 90.19 145.42 98.5723 132.667 108.896L76.1618 106.632C63.4254 122.443 53.0462 140.234 45.5577 159.469L75.8088 207.33C74.5509 215.369 73.8979 223.608 73.8979 232C73.8979 240.392 74.5509 248.631 75.8088 256.67L45.5578 304.531C53.0462 323.766 63.4254 341.557 76.1618 357.368L132.667 355.104C145.42 365.428 159.808 373.81 175.383 379.801L201.588 429.703C211.504 431.215 221.661 432 232 432C242.492 432 252.794 431.192 262.85 429.635L289.019 379.801C304.594 373.81 318.983 365.428 331.735 355.104L387.851 357.353C400.668 341.437 411.098 323.517 418.595 304.137L388.594 256.67C389.852 248.631 390.504 240.392 390.504 232C390.504 223.608 389.852 215.369 388.594 207.33L418.595 159.863C411.098 140.483 400.668 122.563 387.851 106.647L331.735 108.896C318.983 98.5723 304.594 90.19 289.019 84.1987ZM232 307C273.421 307 307 273.421 307 232C307 190.579 273.421 157 232 157C190.578 157 157 190.579 157 232C157 273.421 190.578 307 232 307Z" fill="white"/>
</svg>
